<svg width="2594" height="921" xmlns="http://www.w3.org/2000/svg" xmlns:xlink="http://www.w3.org/1999/xlink" xml:space="preserve" overflow="hidden"><defs><clipPath id="clip0"><rect x="334" y="472" width="2594" height="921"/></clipPath><clipPath id="clip1"><rect x="334" y="472" width="2594" height="921"/></clipPath><clipPath id="clip2"><rect x="1688" y="473" width="1238" height="918"/></clipPath><clipPath id="clip3"><rect x="1688" y="473" width="1238" height="918"/></clipPath><clipPath id="clip4"><rect x="1688" y="473" width="1238" height="918"/></clipPath><clipPath id="clip5"><rect x="1880" y="558" width="1029" height="693"/></clipPath></defs><g clip-path="url(#clip0)" transform="translate(-334 -472)"><g clip-path="url(#clip1)"><path d="M390.415 923.917 1435.02 923.917 1435.02 933.084 390.415 933.083ZM395 942.25 367.5 928.5 395 914.75ZM1430.43 914.75 1457.93 928.5 1430.43 942.25Z" fill="#000000" fill-rule="nonzero" fill-opacity="1"/><text fill="#000000" fill-opacity="1" font-family="Cambria Math,Cambria Math_MSFontService,sans-serif" font-style="normal" font-variant="normal" font-weight="400" font-stretch="normal" font-size="64" text-anchor="start" direction="ltr" writing-mode="lr-tb" unicode-bidi="normal" text-decoration="none" transform="matrix(1 0 0 1 831.87 1040)">𝔼</text><text fill="#000000" fill-opacity="1" font-family="Cambria Math,Cambria Math_MSFontService,sans-serif" font-style="normal" font-variant="normal" font-weight="400" font-stretch="normal" font-size="64" text-anchor="start" direction="ltr" writing-mode="lr-tb" unicode-bidi="normal" text-decoration="none" transform="matrix(1 0 0 1 872.547 1040)">[</text><text fill="#000000" fill-opacity="1" font-family="Cambria Math,Cambria Math_MSFontService,sans-serif" font-style="normal" font-variant="normal" font-weight="400" font-stretch="normal" font-size="64" text-anchor="start" direction="ltr" writing-mode="lr-tb" unicode-bidi="normal" text-decoration="none" transform="matrix(1 0 0 1 894.891 1040)">𝑋</text><path d="M27.5312-37.4062 0-37.4062 0-40.7187 27.5312-40.7187Z" fill="#000000" fill-rule="nonzero" fill-opacity="1" transform="matrix(1 0 0 1 907.541 1027)"/><text fill="#000000" fill-opacity="0" font-family="Arial,Arial_MSFontService,sans-serif" font-size="3.3125" direction="ltr" writing-mode="lr-tb" y="-37.8203">ത</text><text fill="#000000" fill-opacity="1" font-family="Cambria Math,Cambria Math_MSFontService,sans-serif" font-style="normal" font-variant="normal" font-weight="400" font-stretch="normal" font-size="64" text-anchor="start" direction="ltr" writing-mode="lr-tb" unicode-bidi="normal" text-decoration="none" transform="matrix(1 0 0 1 937.699 1040)">]</text><path d="M896.5 912.5 896.5 945.5" stroke="#000000" stroke-width="9.16667" stroke-linecap="butt" stroke-linejoin="round" stroke-miterlimit="10" stroke-opacity="1" fill="none" fill-rule="evenodd"/><text fill="#000000" fill-opacity="1" font-family="Cambria Math,Cambria Math_MSFontService,sans-serif" font-style="normal" font-variant="normal" font-weight="400" font-stretch="normal" font-size="64" text-anchor="start" direction="ltr" writing-mode="lr-tb" unicode-bidi="normal" text-decoration="none" transform="matrix(1 0 0 1 1063.89 826)">+</text><text fill="#000000" fill-opacity="1" font-family="Cambria Math,Cambria Math_MSFontService,sans-serif" font-style="normal" font-variant="normal" font-weight="400" font-stretch="normal" font-size="64" text-anchor="start" direction="ltr" writing-mode="lr-tb" unicode-bidi="normal" text-decoration="none" transform="matrix(1 0 0 1 1112.01 826)">𝜖</text><text fill="#000000" fill-opacity="1" font-family="Cambria Math,Cambria Math_MSFontService,sans-serif" font-style="normal" font-variant="normal" font-weight="400" font-stretch="normal" font-size="64" text-anchor="start" direction="ltr" writing-mode="lr-tb" unicode-bidi="normal" text-decoration="none" transform="matrix(1 0 0 1 1154.55 778)">𝑏</text><text fill="#000000" fill-opacity="1" font-family="Cambria Math,Cambria Math_MSFontService,sans-serif" font-style="normal" font-variant="normal" font-weight="400" font-stretch="normal" font-size="64" text-anchor="start" direction="ltr" writing-mode="lr-tb" unicode-bidi="normal" text-decoration="none" transform="matrix(1 0 0 1 1204.6 778)">−</text><text fill="#000000" fill-opacity="1" font-family="Cambria Math,Cambria Math_MSFontService,sans-serif" font-style="normal" font-variant="normal" font-weight="400" font-stretch="normal" font-size="64" text-anchor="start" direction="ltr" writing-mode="lr-tb" unicode-bidi="normal" text-decoration="none" transform="matrix(1 0 0 1 1266.98 778)">𝑎</text><text fill="#000000" fill-opacity="1" font-family="Cambria Math,Cambria Math_MSFontService,sans-serif" font-style="normal" font-variant="normal" font-weight="400" font-stretch="normal" font-size="64" text-anchor="start" direction="ltr" writing-mode="lr-tb" unicode-bidi="normal" text-decoration="none" transform="matrix(1 0 0 1 1210.42 869)">𝑛</text><path d="M1154.07 806.433 1204.07 806.433 1254.07 806.433 1304.07 806.433 1304.07 810.433 1254.07 810.433 1204.07 810.433 1154.07 810.433Z" fill="#000000" fill-rule="evenodd" fill-opacity="1"/><path d="M1208.5 912.5 1208.5 945.5" stroke="#000000" stroke-width="9.16667" stroke-linecap="butt" stroke-linejoin="round" stroke-miterlimit="10" stroke-opacity="1" fill="none" fill-rule="evenodd"/><rect x="1211" y="900" width="248" height="61.0002" fill="#4285F4" fill-opacity="0.501961"/><path d="M625.5 914.5 625.5 947.5" stroke="#000000" stroke-width="9.16667" stroke-linecap="butt" stroke-linejoin="round" stroke-miterlimit="10" stroke-opacity="1" fill="none" fill-rule="evenodd"/><rect x="378" y="900" width="247" height="59.0001" fill="#4285F4" fill-opacity="0.501961"/><text fill="#000000" fill-opacity="1" font-family="Cambria Math,Cambria Math_MSFontService,sans-serif" font-style="normal" font-variant="normal" font-weight="400" font-stretch="normal" font-size="64" text-anchor="start" direction="ltr" writing-mode="lr-tb" unicode-bidi="normal" text-decoration="none" transform="matrix(1 0 0 1 505 824)">−</text><text fill="#000000" fill-opacity="1" font-family="Cambria Math,Cambria Math_MSFontService,sans-serif" font-style="normal" font-variant="normal" font-weight="400" font-stretch="normal" font-size="64" text-anchor="start" direction="ltr" writing-mode="lr-tb" unicode-bidi="normal" text-decoration="none" transform="matrix(1 0 0 1 553.125 824)">𝜖</text><text fill="#000000" fill-opacity="1" font-family="Cambria Math,Cambria Math_MSFontService,sans-serif" font-style="normal" font-variant="normal" font-weight="400" font-stretch="normal" font-size="64" text-anchor="start" direction="ltr" writing-mode="lr-tb" unicode-bidi="normal" text-decoration="none" transform="matrix(1 0 0 1 595.659 776)">𝑏</text><text fill="#000000" fill-opacity="1" font-family="Cambria Math,Cambria Math_MSFontService,sans-serif" font-style="normal" font-variant="normal" font-weight="400" font-stretch="normal" font-size="64" text-anchor="start" direction="ltr" writing-mode="lr-tb" unicode-bidi="normal" text-decoration="none" transform="matrix(1 0 0 1 645.709 776)">−</text><text fill="#000000" fill-opacity="1" font-family="Cambria Math,Cambria Math_MSFontService,sans-serif" font-style="normal" font-variant="normal" font-weight="400" font-stretch="normal" font-size="64" text-anchor="start" direction="ltr" writing-mode="lr-tb" unicode-bidi="normal" text-decoration="none" transform="matrix(1 0 0 1 708.088 776)">𝑎</text><text fill="#000000" fill-opacity="1" font-family="Cambria Math,Cambria Math_MSFontService,sans-serif" font-style="normal" font-variant="normal" font-weight="400" font-stretch="normal" font-size="64" text-anchor="start" direction="ltr" writing-mode="lr-tb" unicode-bidi="normal" text-decoration="none" transform="matrix(1 0 0 1 651.53 867)">𝑛</text><path d="M595.178 804.398 645.178 804.398 695.178 804.398 745.178 804.398 745.178 808.398 695.178 808.398 645.178 808.398 595.178 808.398Z" fill="#000000" fill-rule="evenodd" fill-opacity="1"/><g clip-path="url(#clip2)"><g clip-path="url(#clip3)"><g clip-path="url(#clip4)"><path d="M0 917 1234.15 917 1234.15 0 0 0Z" fill="#FFFFFF" fill-rule="nonzero" fill-opacity="1" transform="matrix(1.00129 0 0 1 1689.13 473)"/><path d="M191.595 777.745 1217.69 777.745 1217.69 85.5854 191.595 85.5854Z" fill="#FFFFFF" fill-rule="nonzero" fill-opacity="1" transform="matrix(1.00129 0 0 1 1689.13 473)"/><path d="M0 0 0-13.717" stroke="#000000" stroke-width="2.28617" stroke-linecap="butt" stroke-linejoin="round" stroke-miterlimit="4" stroke-opacity="1" fill="none" fill-rule="nonzero" transform="matrix(1.00129 0 0 1 1926.74 1250.75)"/><path d="M0 0 0 13.717" stroke="#000000" stroke-width="2.28617" stroke-linecap="butt" stroke-linejoin="round" stroke-miterlimit="4" stroke-opacity="1" fill="none" fill-rule="nonzero" transform="matrix(1.00129 0 0 1 1926.74 558.585)"/><path d="M14.5315 1.5646C16.8128 1.5646 18.518 2.81484 19.6468 5.31534 20.7803 7.81584 21.3471 11.588 21.3471 16.6319 21.3471 21.6948 20.7803 25.4765 19.6468 27.977 18.518 30.4775 16.8128 31.7277 14.5315 31.7277 12.2548 31.7277 10.5497 30.4775 9.41615 27.977 8.28736 25.4765 7.72296 21.6948 7.72296 16.6319 7.72296 11.588 8.28736 7.81584 9.41615 5.31534 10.5497 2.81484 12.2548 1.5646 14.5315 1.5646ZM14.5315-0.650129C10.9165-0.650129 8.0921 0.866836 6.05834 3.90077 4.02937 6.93947 3.01488 11.1831 3.01488 16.6319 3.01488 22.0949 4.02937 26.3433 6.05834 29.3773 8.0921 32.4159 10.9165 33.9353 14.5315 33.9353 18.1655 33.9353 20.9947 32.4159 23.0189 29.3773 25.043 26.3433 26.0552 22.0949 26.0552 16.6319 26.0552 11.1831 25.043 6.93947 23.0189 3.90077 20.9947 0.866836 18.1655-0.650129 14.5315-0.650129Z" fill="#000000" fill-rule="nonzero" fill-opacity="1" transform="matrix(1.00129 0 0 -1 1912.17 1301.49)"/><path d="M0 0 0-13.717" stroke="#000000" stroke-width="2.28617" stroke-linecap="butt" stroke-linejoin="round" stroke-miterlimit="4" stroke-opacity="1" fill="none" fill-rule="nonzero" transform="matrix(1.00129 0 0 1 2113.73 1250.75)"/><path d="M0 0 0 13.717" stroke="#000000" stroke-width="2.28617" stroke-linecap="butt" stroke-linejoin="round" stroke-miterlimit="4" stroke-opacity="1" fill="none" fill-rule="nonzero" transform="matrix(1.00129 0 0 1 2113.73 558.585)"/><path d="M5.85116 25.3836 3.35066 25.3836 3.35066 31.3205C4.94146 32.173 6.54415 32.8208 8.15876 33.2637 9.77337 33.7115 11.3546 33.9353 12.9026 33.9353 16.3699 33.9353 19.1086 33.0946 21.1185 31.4134 23.1284 29.7321 24.1334 27.4483 24.1334 24.562 24.1334 21.2994 21.8567 17.3987 17.3034 12.8597 16.9462 12.5168 16.6771 12.2572 16.4961 12.081L8.08017 3.66501 21.9901 3.66501 21.9901 7.77297 24.6049 7.77297 24.6049 0 3.10061 0 3.10061 2.4362 13.2169 12.5239C15.4507 14.7577 17.0439 16.8081 17.9964 18.6751 18.949 20.5421 19.4253 22.5045 19.4253 24.562 19.4253 26.8053 18.8394 28.5604 17.6678 29.8273 16.5009 31.0942 14.891 31.7277 12.8383 31.7277 10.7093 31.7277 9.06373 31.199 7.90157 30.1417 6.74419 29.0843 6.06072 27.4983 5.85116 25.3836Z" fill="#000000" fill-rule="nonzero" fill-opacity="1" transform="matrix(1.00129 0 0 -1 2099.16 1301.49)"/><path d="M0 0 0-13.717" stroke="#000000" stroke-width="2.28617" stroke-linecap="butt" stroke-linejoin="round" stroke-miterlimit="4" stroke-opacity="1" fill="none" fill-rule="nonzero" transform="matrix(1.00129 0 0 1 2300.72 1250.75)"/><path d="M0 0 0 13.717" stroke="#000000" stroke-width="2.28617" stroke-linecap="butt" stroke-linejoin="round" stroke-miterlimit="4" stroke-opacity="1" fill="none" fill-rule="nonzero" transform="matrix(1.00129 0 0 1 2300.72 558.585)"/><path d="M15.9603 11.2951 15.9603 29.0272 4.57948 11.2951 15.9603 11.2951ZM25.7837 0 10.6021 0 10.6021 2.36475 15.9603 2.36475 15.9603 8.90891 1.40742 8.90891 1.40742 11.3451 16.0103 33.9353 20.4255 33.9353 20.4255 11.2951 26.791 11.2951 26.791 8.90891 20.4255 8.90891 20.4255 2.36475 25.7837 2.36475 25.7837 0Z" fill="#000000" fill-rule="nonzero" fill-opacity="1" transform="matrix(1.00129 0 0 -1 2286.16 1301.49)"/><path d="M0 0 0-13.717" stroke="#000000" stroke-width="2.28617" stroke-linecap="butt" stroke-linejoin="round" stroke-miterlimit="4" stroke-opacity="1" fill="none" fill-rule="nonzero" transform="matrix(1.00129 0 0 1 2487.71 1250.75)"/><path d="M0 0 0 13.717" stroke="#000000" stroke-width="2.28617" stroke-linecap="butt" stroke-linejoin="round" stroke-miterlimit="4" stroke-opacity="1" fill="none" fill-rule="nonzero" transform="matrix(1.00129 0 0 1 2487.71 558.585)"/><path d="M14.9601 1.5646C17.0557 1.5646 18.668 2.3338 19.7968 3.8722 20.9304 5.41536 21.4971 7.63008 21.4971 10.5164 21.4971 13.4027 20.9304 15.615 19.7968 17.1534 18.668 18.6966 17.0557 19.4681 14.9601 19.4681 12.8311 19.4681 11.207 18.7228 10.0877 17.232 8.97321 15.746 8.41595 13.5956 8.41595 10.7807 8.41595 7.82298 8.98035 5.54634 10.1091 3.95078 11.2427 2.35999 12.8597 1.5646 14.9601 1.5646ZM7.68009 18.3536C8.69458 19.4681 9.84002 20.2992 11.1165 20.847 12.3977 21.3995 13.8432 21.6757 15.4531 21.6757 18.768 21.6757 21.39 20.6779 23.3189 18.6823 25.2479 16.6914 26.2123 13.9694 26.2123 10.5164 26.2123 7.13951 25.1741 4.43422 23.0974 2.40048 21.0208 0.366739 18.2488-0.650129 14.7815-0.650129 11.0141-0.650129 8.11825 0.752528 6.09407 3.55785 4.06986 6.36793 3.05775 10.3758 3.05775 15.5817 3.05775 21.4162 4.25561 25.9337 6.65132 29.1343 9.04701 32.335 12.4262 33.9353 16.789 33.9353 17.9655 33.9353 19.2015 33.8233 20.4969 33.5995 21.7924 33.3757 23.1165 33.0423 24.4691 32.5993L24.4691 27.1054 21.9472 27.1054C21.7662 28.6057 21.1923 29.7511 20.2254 30.5418 19.2586 31.3324 17.9559 31.7277 16.3175 31.7277 13.4312 31.7277 11.2808 30.6323 9.86624 28.4414 8.45168 26.2552 7.72296 22.8926 7.68009 18.3536Z" fill="#000000" fill-rule="nonzero" fill-opacity="1" transform="matrix(1.00129 0 0 -1 2473.14 1301.49)"/><path d="M0 0 0-13.717" stroke="#000000" stroke-width="2.28617" stroke-linecap="butt" stroke-linejoin="round" stroke-miterlimit="4" stroke-opacity="1" fill="none" fill-rule="nonzero" transform="matrix(1.00129 0 0 1 2674.7 1250.75)"/><path d="M0 0 0 13.717" stroke="#000000" stroke-width="2.28617" stroke-linecap="butt" stroke-linejoin="round" stroke-miterlimit="4" stroke-opacity="1" fill="none" fill-rule="nonzero" transform="matrix(1.00129 0 0 1 2674.7 558.585)"/><path d="M21.2971 9.10895C21.2971 11.4903 20.7041 13.3384 19.5182 14.6529 18.337 15.9722 16.6747 16.6319 14.5315 16.6319 12.3882 16.6319 10.7259 15.9722 9.54475 14.6529 8.36359 13.3384 7.77297 11.4903 7.77297 9.10895 7.77297 6.71324 8.36359 4.85573 9.54475 3.53642 10.7259 2.22187 12.3882 1.5646 14.5315 1.5646 16.6747 1.5646 18.337 2.22187 19.5182 3.53642 20.7041 4.85573 21.2971 6.71324 21.2971 9.10895ZM20.3826 25.2979C20.3826 27.3221 19.8682 28.8986 18.8394 30.0274 17.8155 31.161 16.3795 31.7277 14.5315 31.7277 12.7025 31.7277 11.2713 31.161 10.2377 30.0274 9.20418 28.8986 8.68744 27.3221 8.68744 25.2979 8.68744 23.2594 9.20418 21.6734 10.2377 20.5398 11.2713 19.411 12.7025 18.8466 14.5315 18.8466 16.3795 18.8466 17.8155 19.411 18.8394 20.5398 19.8682 21.6734 20.3826 23.2594 20.3826 25.2979ZM17.975 17.7464C20.5041 17.4082 22.4759 16.4747 23.8905 14.9458 25.305 13.4217 26.0123 11.4761 26.0123 9.10895 26.0123 5.98452 25.0216 3.5769 23.0403 1.88609 21.059 0.195277 18.2227-0.650129 14.5315-0.650129 10.8593-0.650129 8.02781 0.195277 6.03691 1.88609 4.0508 3.5769 3.05775 5.98452 3.05775 9.10895 3.05775 11.4761 3.76503 13.4217 5.1796 14.9458 6.59416 16.4747 8.57313 17.4082 11.1165 17.7464 8.8684 18.1512 7.14427 19.0038 5.94404 20.304 4.74856 21.6091 4.15082 23.2737 4.15082 25.2979 4.15082 27.9746 5.07243 30.0822 6.91566 31.6206 8.76367 33.1637 11.3022 33.9353 14.5315 33.9353 17.7655 33.9353 20.304 33.1637 22.1472 31.6206 23.9953 30.0822 24.9192 27.9746 24.9192 25.2979 24.9192 23.2737 24.3191 21.6091 23.1189 20.304 21.9186 19.0038 20.204 18.1512 17.975 17.7464Z" fill="#000000" fill-rule="nonzero" fill-opacity="1" transform="matrix(1.00129 0 0 -1 2660.13 1301.49)"/><path d="M0 0 0-13.717" stroke="#000000" stroke-width="2.28617" stroke-linecap="butt" stroke-linejoin="round" stroke-miterlimit="4" stroke-opacity="1" fill="none" fill-rule="nonzero" transform="matrix(1.00129 0 0 1 2861.69 1250.75)"/><path d="M0 0 0 13.717" stroke="#000000" stroke-width="2.28617" stroke-linecap="butt" stroke-linejoin="round" stroke-miterlimit="4" stroke-opacity="1" fill="none" fill-rule="nonzero" transform="matrix(1.00129 0 0 1 2861.69 558.585)"/><path d="M6.49414 0 6.49414 2.36475 12.3024 2.36475 12.3024 30.0988 5.57968 25.7408 5.57968 28.67 13.7099 33.9353 16.789 33.9353 16.789 2.36475 22.5973 2.36475 22.5973 0 6.49414 0Z" fill="#000000" fill-rule="nonzero" fill-opacity="1" transform="matrix(1.00129 0 0 -1 2832.56 1301.49)"/><path d="M14.5315 1.5646C16.8128 1.5646 18.518 2.81484 19.6468 5.31534 20.7803 7.81584 21.3471 11.588 21.3471 16.6319 21.3471 21.6948 20.7803 25.4765 19.6468 27.977 18.518 30.4775 16.8128 31.7277 14.5315 31.7277 12.2548 31.7277 10.5497 30.4775 9.41615 27.977 8.28736 25.4765 7.72296 21.6948 7.72296 16.6319 7.72296 11.588 8.28736 7.81584 9.41615 5.31534 10.5497 2.81484 12.2548 1.5646 14.5315 1.5646ZM14.5315-0.650129C10.9165-0.650129 8.0921 0.866836 6.05834 3.90077 4.02937 6.93947 3.01488 11.1831 3.01488 16.6319 3.01488 22.0949 4.02937 26.3433 6.05834 29.3773 8.0921 32.4159 10.9165 33.9353 14.5315 33.9353 18.1655 33.9353 20.9947 32.4159 23.0189 29.3773 25.043 26.3433 26.0552 22.0949 26.0552 16.6319 26.0552 11.1831 25.043 6.93947 23.0189 3.90077 20.9947 0.866836 18.1655-0.650129 14.5315-0.650129Z" fill="#000000" fill-rule="nonzero" fill-opacity="1" transform="matrix(1.00129 0 0 -1 2861.69 1301.49)"/><path d="M0 0 0-6.8585" stroke="#000000" stroke-width="2.28617" stroke-linecap="butt" stroke-linejoin="round" stroke-miterlimit="4" stroke-opacity="1" fill="none" fill-rule="nonzero" transform="matrix(1.00129 0 0 1 1973.49 1250.75)"/><path d="M0 0 0 6.8585" stroke="#000000" stroke-width="2.28617" stroke-linecap="butt" stroke-linejoin="round" stroke-miterlimit="4" stroke-opacity="1" fill="none" fill-rule="nonzero" transform="matrix(1.00129 0 0 1 1973.49 558.585)"/><path d="M0 0 0-6.8585" stroke="#000000" stroke-width="2.28617" stroke-linecap="butt" stroke-linejoin="round" stroke-miterlimit="4" stroke-opacity="1" fill="none" fill-rule="nonzero" transform="matrix(1.00129 0 0 1 2020.23 1250.75)"/><path d="M0 0 0 6.8585" stroke="#000000" stroke-width="2.28617" stroke-linecap="butt" stroke-linejoin="round" stroke-miterlimit="4" stroke-opacity="1" fill="none" fill-rule="nonzero" transform="matrix(1.00129 0 0 1 2020.23 558.585)"/><path d="M0 0 0-6.8585" stroke="#000000" stroke-width="2.28617" stroke-linecap="butt" stroke-linejoin="round" stroke-miterlimit="4" stroke-opacity="1" fill="none" fill-rule="nonzero" transform="matrix(1.00129 0 0 1 2066.98 1250.75)"/><path d="M0 0 0 6.8585" stroke="#000000" stroke-width="2.28617" stroke-linecap="butt" stroke-linejoin="round" stroke-miterlimit="4" stroke-opacity="1" fill="none" fill-rule="nonzero" transform="matrix(1.00129 0 0 1 2066.98 558.585)"/><path d="M0 0 0-6.8585" stroke="#000000" stroke-width="2.28617" stroke-linecap="butt" stroke-linejoin="round" stroke-miterlimit="4" stroke-opacity="1" fill="none" fill-rule="nonzero" transform="matrix(1.00129 0 0 1 2160.48 1250.75)"/><path d="M0 0 0 6.8585" stroke="#000000" stroke-width="2.28617" stroke-linecap="butt" stroke-linejoin="round" stroke-miterlimit="4" stroke-opacity="1" fill="none" fill-rule="nonzero" transform="matrix(1.00129 0 0 1 2160.48 558.585)"/><path d="M0 0 0-6.8585" stroke="#000000" stroke-width="2.28617" stroke-linecap="butt" stroke-linejoin="round" stroke-miterlimit="4" stroke-opacity="1" fill="none" fill-rule="nonzero" transform="matrix(1.00129 0 0 1 2207.22 1250.75)"/><path d="M0 0 0 6.8585" stroke="#000000" stroke-width="2.28617" stroke-linecap="butt" stroke-linejoin="round" stroke-miterlimit="4" stroke-opacity="1" fill="none" fill-rule="nonzero" transform="matrix(1.00129 0 0 1 2207.22 558.585)"/><path d="M0 0 0-6.8585" stroke="#000000" stroke-width="2.28617" stroke-linecap="butt" stroke-linejoin="round" stroke-miterlimit="4" stroke-opacity="1" fill="none" fill-rule="nonzero" transform="matrix(1.00129 0 0 1 2253.97 1250.75)"/><path d="M0 0 0 6.8585" stroke="#000000" stroke-width="2.28617" stroke-linecap="butt" stroke-linejoin="round" stroke-miterlimit="4" stroke-opacity="1" fill="none" fill-rule="nonzero" transform="matrix(1.00129 0 0 1 2253.97 558.585)"/><path d="M0 0 0-6.8585" stroke="#000000" stroke-width="2.28617" stroke-linecap="butt" stroke-linejoin="round" stroke-miterlimit="4" stroke-opacity="1" fill="none" fill-rule="nonzero" transform="matrix(1.00129 0 0 1 2347.47 1250.75)"/><path d="M0 0 0 6.8585" stroke="#000000" stroke-width="2.28617" stroke-linecap="butt" stroke-linejoin="round" stroke-miterlimit="4" stroke-opacity="1" fill="none" fill-rule="nonzero" transform="matrix(1.00129 0 0 1 2347.47 558.585)"/><path d="M0 0 0-6.8585" stroke="#000000" stroke-width="2.28617" stroke-linecap="butt" stroke-linejoin="round" stroke-miterlimit="4" stroke-opacity="1" fill="none" fill-rule="nonzero" transform="matrix(1.00129 0 0 1 2394.22 1250.75)"/><path d="M0 0 0 6.8585" stroke="#000000" stroke-width="2.28617" stroke-linecap="butt" stroke-linejoin="round" stroke-miterlimit="4" stroke-opacity="1" fill="none" fill-rule="nonzero" transform="matrix(1.00129 0 0 1 2394.22 558.585)"/><path d="M0 0 0-6.8585" stroke="#000000" stroke-width="2.28617" stroke-linecap="butt" stroke-linejoin="round" stroke-miterlimit="4" stroke-opacity="1" fill="none" fill-rule="nonzero" transform="matrix(1.00129 0 0 1 2440.96 1250.75)"/><path d="M0 0 0 6.8585" stroke="#000000" stroke-width="2.28617" stroke-linecap="butt" stroke-linejoin="round" stroke-miterlimit="4" stroke-opacity="1" fill="none" fill-rule="nonzero" transform="matrix(1.00129 0 0 1 2440.96 558.585)"/><path d="M0 0 0-6.8585" stroke="#000000" stroke-width="2.28617" stroke-linecap="butt" stroke-linejoin="round" stroke-miterlimit="4" stroke-opacity="1" fill="none" fill-rule="nonzero" transform="matrix(1.00129 0 0 1 2534.46 1250.75)"/><path d="M0 0 0 6.8585" stroke="#000000" stroke-width="2.28617" stroke-linecap="butt" stroke-linejoin="round" stroke-miterlimit="4" stroke-opacity="1" fill="none" fill-rule="nonzero" transform="matrix(1.00129 0 0 1 2534.46 558.585)"/><path d="M0 0 0-6.8585" stroke="#000000" stroke-width="2.28617" stroke-linecap="butt" stroke-linejoin="round" stroke-miterlimit="4" stroke-opacity="1" fill="none" fill-rule="nonzero" transform="matrix(1.00129 0 0 1 2581.2 1250.75)"/><path d="M0 0 0 6.8585" stroke="#000000" stroke-width="2.28617" stroke-linecap="butt" stroke-linejoin="round" stroke-miterlimit="4" stroke-opacity="1" fill="none" fill-rule="nonzero" transform="matrix(1.00129 0 0 1 2581.2 558.585)"/><path d="M0 0 0-6.8585" stroke="#000000" stroke-width="2.28617" stroke-linecap="butt" stroke-linejoin="round" stroke-miterlimit="4" stroke-opacity="1" fill="none" fill-rule="nonzero" transform="matrix(1.00129 0 0 1 2627.95 1250.75)"/><path d="M0 0 0 6.8585" stroke="#000000" stroke-width="2.28617" stroke-linecap="butt" stroke-linejoin="round" stroke-miterlimit="4" stroke-opacity="1" fill="none" fill-rule="nonzero" transform="matrix(1.00129 0 0 1 2627.95 558.585)"/><path d="M0 0 0-6.8585" stroke="#000000" stroke-width="2.28617" stroke-linecap="butt" stroke-linejoin="round" stroke-miterlimit="4" stroke-opacity="1" fill="none" fill-rule="nonzero" transform="matrix(1.00129 0 0 1 2721.44 1250.75)"/><path d="M0 0 0 6.8585" stroke="#000000" stroke-width="2.28617" stroke-linecap="butt" stroke-linejoin="round" stroke-miterlimit="4" stroke-opacity="1" fill="none" fill-rule="nonzero" transform="matrix(1.00129 0 0 1 2721.44 558.585)"/><path d="M0 0 0-6.8585" stroke="#000000" stroke-width="2.28617" stroke-linecap="butt" stroke-linejoin="round" stroke-miterlimit="4" stroke-opacity="1" fill="none" fill-rule="nonzero" transform="matrix(1.00129 0 0 1 2768.19 1250.75)"/><path d="M0 0 0 6.8585" stroke="#000000" stroke-width="2.28617" stroke-linecap="butt" stroke-linejoin="round" stroke-miterlimit="4" stroke-opacity="1" fill="none" fill-rule="nonzero" transform="matrix(1.00129 0 0 1 2768.19 558.585)"/><path d="M0 0 0-6.8585" stroke="#000000" stroke-width="2.28617" stroke-linecap="butt" stroke-linejoin="round" stroke-miterlimit="4" stroke-opacity="1" fill="none" fill-rule="nonzero" transform="matrix(1.00129 0 0 1 2814.94 1250.75)"/><path d="M0 0 0 6.8585" stroke="#000000" stroke-width="2.28617" stroke-linecap="butt" stroke-linejoin="round" stroke-miterlimit="4" stroke-opacity="1" fill="none" fill-rule="nonzero" transform="matrix(1.00129 0 0 1 2814.94 558.585)"/><path d="M22.7974 22.5473 21.9258 18.1536 19.4253 17.5963C19.4967 18.9204 19.0657 19.923 18.1322 20.6041 17.1939 21.2756 16.0246 21.6114 14.6243 21.6114 13.2241 21.6114 11.9357 21.2471 10.7593 20.5184 9.56854 19.7754 8.87797 18.8966 8.68744 17.8821 8.43503 16.5724 8.8589 15.5388 9.95912 14.7815 11.0736 14.0051 12.6216 13.617 14.6029 13.617L15.6745 13.617 15.2244 11.2737 13.174 11.2737C11.1784 11.2737 9.43759 10.7974 7.95158 9.84481 6.44651 8.87797 5.53681 7.58243 5.22246 5.95832 4.98432 4.71046 5.40822 3.61738 6.49414 2.6791 7.58486 1.72654 8.95413 1.25025 10.6021 1.25025 12.331 1.25025 13.898 1.64318 15.303 2.42905 16.7128 3.21969 17.6392 4.37467 18.0822 5.89403L20.3826 5.33677 19.4896 0.73586C17.8083 0.202421 16.1341-0.20004 14.4672-0.471522 12.8288-0.738239 11.438-0.871601 10.2949-0.871601 7.36096-0.871601 4.99385-0.28339 3.19349 0.893034 1.42171 2.08375 0.752528 3.78884 1.18595 6.00833 1.62889 8.34215 2.68387 10.0829 4.35086 11.2308 5.23199 11.8118 6.80373 12.2501 9.06608 12.5453L5.91546 14.31C4.81524 14.9339 4.45088 16.1913 4.82238 18.0822 5.19389 20.0016 6.20599 21.4685 7.8587 22.483 9.51139 23.4784 11.7952 23.9762 14.7101 23.9762 15.515 23.9762 16.6699 23.8571 18.175 23.619 19.6753 23.3666 21.2161 23.0093 22.7974 22.5473Z" fill="#000000" fill-rule="nonzero" fill-opacity="1" transform="matrix(1.00129 0 0 -1 2382.32 1363.78)"/><path d="M0 0 13.717 0" stroke="#000000" stroke-width="2.28617" stroke-linecap="butt" stroke-linejoin="round" stroke-miterlimit="4" stroke-opacity="1" fill="none" fill-rule="nonzero" transform="matrix(1.00129 0 0 1 1880.97 1250.75)"/><path d="M0 0-13.717 0" stroke="#000000" stroke-width="2.28617" stroke-linecap="butt" stroke-linejoin="round" stroke-miterlimit="4" stroke-opacity="1" fill="none" fill-rule="nonzero" transform="matrix(1.00129 0 0 1 2908.39 1250.75)"/><path d="M14.5315 1.5646C16.8128 1.5646 18.518 2.81484 19.6468 5.31534 20.7803 7.81584 21.3471 11.588 21.3471 16.6319 21.3471 21.6948 20.7803 25.4765 19.6468 27.977 18.518 30.4775 16.8128 31.7277 14.5315 31.7277 12.2548 31.7277 10.5497 30.4775 9.41615 27.977 8.28736 25.4765 7.72296 21.6948 7.72296 16.6319 7.72296 11.588 8.28736 7.81584 9.41615 5.31534 10.5497 2.81484 12.2548 1.5646 14.5315 1.5646ZM14.5315-0.650129C10.9165-0.650129 8.0921 0.866836 6.05834 3.90077 4.02937 6.93947 3.01488 11.1831 3.01488 16.6319 3.01488 22.0949 4.02937 26.3433 6.05834 29.3773 8.0921 32.4159 10.9165 33.9353 14.5315 33.9353 18.1655 33.9353 20.9947 32.4159 23.0189 29.3773 25.043 26.3433 26.0552 22.0949 26.0552 16.6319 26.0552 11.1831 25.043 6.93947 23.0189 3.90077 20.9947 0.866836 18.1655-0.650129 14.5315-0.650129Z" fill="#000000" fill-rule="nonzero" fill-opacity="1" transform="matrix(1.00129 0 0 -1 1792.14 1268.12)"/><path d="M4.308 2.32189C4.308 3.15539 4.59139 3.86267 5.15817 4.44374 5.72494 5.0248 6.43223 5.31534 7.28001 5.31534 8.09925 5.31534 8.79696 5.0248 9.37329 4.44374 9.95433 3.86267 10.2449 3.15539 10.2449 2.32189 10.2449 1.50268 9.95433 0.802538 9.37329 0.221472 8.79696-0.359595 8.09925-0.650129 7.28001-0.650129 6.43223-0.650129 5.72494-0.364358 5.15817 0.207184 4.59139 0.783491 4.308 1.48839 4.308 2.32189Z" fill="#000000" fill-rule="nonzero" fill-opacity="1" transform="matrix(1.00129 0 0 -1 1821.27 1268.12)"/><path d="M14.5315 1.5646C16.8128 1.5646 18.518 2.81484 19.6468 5.31534 20.7803 7.81584 21.3471 11.588 21.3471 16.6319 21.3471 21.6948 20.7803 25.4765 19.6468 27.977 18.518 30.4775 16.8128 31.7277 14.5315 31.7277 12.2548 31.7277 10.5497 30.4775 9.41615 27.977 8.28736 25.4765 7.72296 21.6948 7.72296 16.6319 7.72296 11.588 8.28736 7.81584 9.41615 5.31534 10.5497 2.81484 12.2548 1.5646 14.5315 1.5646ZM14.5315-0.650129C10.9165-0.650129 8.0921 0.866836 6.05834 3.90077 4.02937 6.93947 3.01488 11.1831 3.01488 16.6319 3.01488 22.0949 4.02937 26.3433 6.05834 29.3773 8.0921 32.4159 10.9165 33.9353 14.5315 33.9353 18.1655 33.9353 20.9947 32.4159 23.0189 29.3773 25.043 26.3433 26.0552 22.0949 26.0552 16.6319 26.0552 11.1831 25.043 6.93947 23.0189 3.90077 20.9947 0.866836 18.1655-0.650129 14.5315-0.650129Z" fill="#000000" fill-rule="nonzero" fill-opacity="1" transform="matrix(1.00129 0 0 -1 1835.82 1268.12)"/><path d="M0 0 13.717 0" stroke="#000000" stroke-width="2.28617" stroke-linecap="butt" stroke-linejoin="round" stroke-miterlimit="4" stroke-opacity="1" fill="none" fill-rule="nonzero" transform="matrix(1.00129 0 0 1 1880.97 1112.31)"/><path d="M0 0-13.717 0" stroke="#000000" stroke-width="2.28617" stroke-linecap="butt" stroke-linejoin="round" stroke-miterlimit="4" stroke-opacity="1" fill="none" fill-rule="nonzero" transform="matrix(1.00129 0 0 1 2908.39 1112.31)"/><path d="M14.5315 1.5646C16.8128 1.5646 18.518 2.81484 19.6468 5.31534 20.7803 7.81584 21.3471 11.588 21.3471 16.6319 21.3471 21.6948 20.7803 25.4765 19.6468 27.977 18.518 30.4775 16.8128 31.7277 14.5315 31.7277 12.2548 31.7277 10.5497 30.4775 9.41615 27.977 8.28736 25.4765 7.72296 21.6948 7.72296 16.6319 7.72296 11.588 8.28736 7.81584 9.41615 5.31534 10.5497 2.81484 12.2548 1.5646 14.5315 1.5646ZM14.5315-0.650129C10.9165-0.650129 8.0921 0.866836 6.05834 3.90077 4.02937 6.93947 3.01488 11.1831 3.01488 16.6319 3.01488 22.0949 4.02937 26.3433 6.05834 29.3773 8.0921 32.4159 10.9165 33.9353 14.5315 33.9353 18.1655 33.9353 20.9947 32.4159 23.0189 29.3773 25.043 26.3433 26.0552 22.0949 26.0552 16.6319 26.0552 11.1831 25.043 6.93947 23.0189 3.90077 20.9947 0.866836 18.1655-0.650129 14.5315-0.650129Z" fill="#000000" fill-rule="nonzero" fill-opacity="1" transform="matrix(1.00129 0 0 -1 1792.14 1129.68)"/><path d="M4.308 2.32189C4.308 3.15539 4.59139 3.86267 5.15817 4.44374 5.72494 5.0248 6.43223 5.31534 7.28001 5.31534 8.09925 5.31534 8.79696 5.0248 9.37329 4.44374 9.95433 3.86267 10.2449 3.15539 10.2449 2.32189 10.2449 1.50268 9.95433 0.802538 9.37329 0.221472 8.79696-0.359595 8.09925-0.650129 7.28001-0.650129 6.43223-0.650129 5.72494-0.364358 5.15817 0.207184 4.59139 0.783491 4.308 1.48839 4.308 2.32189Z" fill="#000000" fill-rule="nonzero" fill-opacity="1" transform="matrix(1.00129 0 0 -1 1821.27 1129.68)"/><path d="M5.85116 25.3836 3.35066 25.3836 3.35066 31.3205C4.94146 32.173 6.54415 32.8208 8.15876 33.2637 9.77337 33.7115 11.3546 33.9353 12.9026 33.9353 16.3699 33.9353 19.1086 33.0946 21.1185 31.4134 23.1284 29.7321 24.1334 27.4483 24.1334 24.562 24.1334 21.2994 21.8567 17.3987 17.3034 12.8597 16.9462 12.5168 16.6771 12.2572 16.4961 12.081L8.08017 3.66501 21.9901 3.66501 21.9901 7.77297 24.6049 7.77297 24.6049 0 3.10061 0 3.10061 2.4362 13.2169 12.5239C15.4507 14.7577 17.0439 16.8081 17.9964 18.6751 18.949 20.5421 19.4253 22.5045 19.4253 24.562 19.4253 26.8053 18.8394 28.5604 17.6678 29.8273 16.5009 31.0942 14.891 31.7277 12.8383 31.7277 10.7093 31.7277 9.06373 31.199 7.90157 30.1417 6.74419 29.0843 6.06072 27.4983 5.85116 25.3836Z" fill="#000000" fill-rule="nonzero" fill-opacity="1" transform="matrix(1.00129 0 0 -1 1835.82 1129.68)"/><path d="M0 0 13.717 0" stroke="#000000" stroke-width="2.28617" stroke-linecap="butt" stroke-linejoin="round" stroke-miterlimit="4" stroke-opacity="1" fill="none" fill-rule="nonzero" transform="matrix(1.00129 0 0 1 1880.97 973.881)"/><path d="M0 0-13.717 0" stroke="#000000" stroke-width="2.28617" stroke-linecap="butt" stroke-linejoin="round" stroke-miterlimit="4" stroke-opacity="1" fill="none" fill-rule="nonzero" transform="matrix(1.00129 0 0 1 2908.39 973.881)"/><path d="M14.5315 1.5646C16.8128 1.5646 18.518 2.81484 19.6468 5.31534 20.7803 7.81584 21.3471 11.588 21.3471 16.6319 21.3471 21.6948 20.7803 25.4765 19.6468 27.977 18.518 30.4775 16.8128 31.7277 14.5315 31.7277 12.2548 31.7277 10.5497 30.4775 9.41615 27.977 8.28736 25.4765 7.72296 21.6948 7.72296 16.6319 7.72296 11.588 8.28736 7.81584 9.41615 5.31534 10.5497 2.81484 12.2548 1.5646 14.5315 1.5646ZM14.5315-0.650129C10.9165-0.650129 8.0921 0.866836 6.05834 3.90077 4.02937 6.93947 3.01488 11.1831 3.01488 16.6319 3.01488 22.0949 4.02937 26.3433 6.05834 29.3773 8.0921 32.4159 10.9165 33.9353 14.5315 33.9353 18.1655 33.9353 20.9947 32.4159 23.0189 29.3773 25.043 26.3433 26.0552 22.0949 26.0552 16.6319 26.0552 11.1831 25.043 6.93947 23.0189 3.90077 20.9947 0.866836 18.1655-0.650129 14.5315-0.650129Z" fill="#000000" fill-rule="nonzero" fill-opacity="1" transform="matrix(1.00129 0 0 -1 1792.14 991.251)"/><path d="M4.308 2.32189C4.308 3.15539 4.59139 3.86267 5.15817 4.44374 5.72494 5.0248 6.43223 5.31534 7.28001 5.31534 8.09925 5.31534 8.79696 5.0248 9.37329 4.44374 9.95433 3.86267 10.2449 3.15539 10.2449 2.32189 10.2449 1.50268 9.95433 0.802538 9.37329 0.221472 8.79696-0.359595 8.09925-0.650129 7.28001-0.650129 6.43223-0.650129 5.72494-0.364358 5.15817 0.207184 4.59139 0.783491 4.308 1.48839 4.308 2.32189Z" fill="#000000" fill-rule="nonzero" fill-opacity="1" transform="matrix(1.00129 0 0 -1 1821.27 991.251)"/><path d="M15.9603 11.2951 15.9603 29.0272 4.57948 11.2951 15.9603 11.2951ZM25.7837 0 10.6021 0 10.6021 2.36475 15.9603 2.36475 15.9603 8.90891 1.40742 8.90891 1.40742 11.3451 16.0103 33.9353 20.4255 33.9353 20.4255 11.2951 26.791 11.2951 26.791 8.90891 20.4255 8.90891 20.4255 2.36475 25.7837 2.36475 25.7837 0Z" fill="#000000" fill-rule="nonzero" fill-opacity="1" transform="matrix(1.00129 0 0 -1 1835.82 991.251)"/><path d="M0 0 13.717 0" stroke="#000000" stroke-width="2.28617" stroke-linecap="butt" stroke-linejoin="round" stroke-miterlimit="4" stroke-opacity="1" fill="none" fill-rule="nonzero" transform="matrix(1.00129 0 0 1 1880.97 835.449)"/><path d="M0 0-13.717 0" stroke="#000000" stroke-width="2.28617" stroke-linecap="butt" stroke-linejoin="round" stroke-miterlimit="4" stroke-opacity="1" fill="none" fill-rule="nonzero" transform="matrix(1.00129 0 0 1 2908.39 835.449)"/><path d="M14.5315 1.5646C16.8128 1.5646 18.518 2.81484 19.6468 5.31534 20.7803 7.81584 21.3471 11.588 21.3471 16.6319 21.3471 21.6948 20.7803 25.4765 19.6468 27.977 18.518 30.4775 16.8128 31.7277 14.5315 31.7277 12.2548 31.7277 10.5497 30.4775 9.41615 27.977 8.28736 25.4765 7.72296 21.6948 7.72296 16.6319 7.72296 11.588 8.28736 7.81584 9.41615 5.31534 10.5497 2.81484 12.2548 1.5646 14.5315 1.5646ZM14.5315-0.650129C10.9165-0.650129 8.0921 0.866836 6.05834 3.90077 4.02937 6.93947 3.01488 11.1831 3.01488 16.6319 3.01488 22.0949 4.02937 26.3433 6.05834 29.3773 8.0921 32.4159 10.9165 33.9353 14.5315 33.9353 18.1655 33.9353 20.9947 32.4159 23.0189 29.3773 25.043 26.3433 26.0552 22.0949 26.0552 16.6319 26.0552 11.1831 25.043 6.93947 23.0189 3.90077 20.9947 0.866836 18.1655-0.650129 14.5315-0.650129Z" fill="#000000" fill-rule="nonzero" fill-opacity="1" transform="matrix(1.00129 0 0 -1 1792.14 852.821)"/><path d="M4.308 2.32189C4.308 3.15539 4.59139 3.86267 5.15817 4.44374 5.72494 5.0248 6.43223 5.31534 7.28001 5.31534 8.09925 5.31534 8.79696 5.0248 9.37329 4.44374 9.95433 3.86267 10.2449 3.15539 10.2449 2.32189 10.2449 1.50268 9.95433 0.802538 9.37329 0.221472 8.79696-0.359595 8.09925-0.650129 7.28001-0.650129 6.43223-0.650129 5.72494-0.364358 5.15817 0.207184 4.59139 0.783491 4.308 1.48839 4.308 2.32189Z" fill="#000000" fill-rule="nonzero" fill-opacity="1" transform="matrix(1.00129 0 0 -1 1821.27 852.821)"/><path d="M14.9601 1.5646C17.0557 1.5646 18.668 2.3338 19.7968 3.8722 20.9304 5.41536 21.4971 7.63008 21.4971 10.5164 21.4971 13.4027 20.9304 15.615 19.7968 17.1534 18.668 18.6966 17.0557 19.4681 14.9601 19.4681 12.8311 19.4681 11.207 18.7228 10.0877 17.232 8.97321 15.746 8.41595 13.5956 8.41595 10.7807 8.41595 7.82298 8.98035 5.54634 10.1091 3.95078 11.2427 2.35999 12.8597 1.5646 14.9601 1.5646ZM7.68009 18.3536C8.69458 19.4681 9.84002 20.2992 11.1165 20.847 12.3977 21.3995 13.8432 21.6757 15.4531 21.6757 18.768 21.6757 21.39 20.6779 23.3189 18.6823 25.2479 16.6914 26.2123 13.9694 26.2123 10.5164 26.2123 7.13951 25.1741 4.43422 23.0974 2.40048 21.0208 0.366739 18.2488-0.650129 14.7815-0.650129 11.0141-0.650129 8.11825 0.752528 6.09407 3.55785 4.06986 6.36793 3.05775 10.3758 3.05775 15.5817 3.05775 21.4162 4.25561 25.9337 6.65132 29.1343 9.04701 32.335 12.4262 33.9353 16.789 33.9353 17.9655 33.9353 19.2015 33.8233 20.4969 33.5995 21.7924 33.3757 23.1165 33.0423 24.4691 32.5993L24.4691 27.1054 21.9472 27.1054C21.7662 28.6057 21.1923 29.7511 20.2254 30.5418 19.2586 31.3324 17.9559 31.7277 16.3175 31.7277 13.4312 31.7277 11.2808 30.6323 9.86624 28.4414 8.45168 26.2552 7.72296 22.8926 7.68009 18.3536Z" fill="#000000" fill-rule="nonzero" fill-opacity="1" transform="matrix(1.00129 0 0 -1 1835.82 852.821)"/><path d="M0 0 13.717 0" stroke="#000000" stroke-width="2.28617" stroke-linecap="butt" stroke-linejoin="round" stroke-miterlimit="4" stroke-opacity="1" fill="none" fill-rule="nonzero" transform="matrix(1.00129 0 0 1 1880.97 697.017)"/><path d="M0 0-13.717 0" stroke="#000000" stroke-width="2.28617" stroke-linecap="butt" stroke-linejoin="round" stroke-miterlimit="4" stroke-opacity="1" fill="none" fill-rule="nonzero" transform="matrix(1.00129 0 0 1 2908.39 697.017)"/><path d="M14.5315 1.5646C16.8128 1.5646 18.518 2.81484 19.6468 5.31534 20.7803 7.81584 21.3471 11.588 21.3471 16.6319 21.3471 21.6948 20.7803 25.4765 19.6468 27.977 18.518 30.4775 16.8128 31.7277 14.5315 31.7277 12.2548 31.7277 10.5497 30.4775 9.41615 27.977 8.28736 25.4765 7.72296 21.6948 7.72296 16.6319 7.72296 11.588 8.28736 7.81584 9.41615 5.31534 10.5497 2.81484 12.2548 1.5646 14.5315 1.5646ZM14.5315-0.650129C10.9165-0.650129 8.0921 0.866836 6.05834 3.90077 4.02937 6.93947 3.01488 11.1831 3.01488 16.6319 3.01488 22.0949 4.02937 26.3433 6.05834 29.3773 8.0921 32.4159 10.9165 33.9353 14.5315 33.9353 18.1655 33.9353 20.9947 32.4159 23.0189 29.3773 25.043 26.3433 26.0552 22.0949 26.0552 16.6319 26.0552 11.1831 25.043 6.93947 23.0189 3.90077 20.9947 0.866836 18.1655-0.650129 14.5315-0.650129Z" fill="#000000" fill-rule="nonzero" fill-opacity="1" transform="matrix(1.00129 0 0 -1 1792.14 714.389)"/><path d="M4.308 2.32189C4.308 3.15539 4.59139 3.86267 5.15817 4.44374 5.72494 5.0248 6.43223 5.31534 7.28001 5.31534 8.09925 5.31534 8.79696 5.0248 9.37329 4.44374 9.95433 3.86267 10.2449 3.15539 10.2449 2.32189 10.2449 1.50268 9.95433 0.802538 9.37329 0.221472 8.79696-0.359595 8.09925-0.650129 7.28001-0.650129 6.43223-0.650129 5.72494-0.364358 5.15817 0.207184 4.59139 0.783491 4.308 1.48839 4.308 2.32189Z" fill="#000000" fill-rule="nonzero" fill-opacity="1" transform="matrix(1.00129 0 0 -1 1821.27 714.389)"/><path d="M21.2971 9.10895C21.2971 11.4903 20.7041 13.3384 19.5182 14.6529 18.337 15.9722 16.6747 16.6319 14.5315 16.6319 12.3882 16.6319 10.7259 15.9722 9.54475 14.6529 8.36359 13.3384 7.77297 11.4903 7.77297 9.10895 7.77297 6.71324 8.36359 4.85573 9.54475 3.53642 10.7259 2.22187 12.3882 1.5646 14.5315 1.5646 16.6747 1.5646 18.337 2.22187 19.5182 3.53642 20.7041 4.85573 21.2971 6.71324 21.2971 9.10895ZM20.3826 25.2979C20.3826 27.3221 19.8682 28.8986 18.8394 30.0274 17.8155 31.161 16.3795 31.7277 14.5315 31.7277 12.7025 31.7277 11.2713 31.161 10.2377 30.0274 9.20418 28.8986 8.68744 27.3221 8.68744 25.2979 8.68744 23.2594 9.20418 21.6734 10.2377 20.5398 11.2713 19.411 12.7025 18.8466 14.5315 18.8466 16.3795 18.8466 17.8155 19.411 18.8394 20.5398 19.8682 21.6734 20.3826 23.2594 20.3826 25.2979ZM17.975 17.7464C20.5041 17.4082 22.4759 16.4747 23.8905 14.9458 25.305 13.4217 26.0123 11.4761 26.0123 9.10895 26.0123 5.98452 25.0216 3.5769 23.0403 1.88609 21.059 0.195277 18.2227-0.650129 14.5315-0.650129 10.8593-0.650129 8.02781 0.195277 6.03691 1.88609 4.0508 3.5769 3.05775 5.98452 3.05775 9.10895 3.05775 11.4761 3.76503 13.4217 5.1796 14.9458 6.59416 16.4747 8.57313 17.4082 11.1165 17.7464 8.8684 18.1512 7.14427 19.0038 5.94404 20.304 4.74856 21.6091 4.15082 23.2737 4.15082 25.2979 4.15082 27.9746 5.07243 30.0822 6.91566 31.6206 8.76367 33.1637 11.3022 33.9353 14.5315 33.9353 17.7655 33.9353 20.304 33.1637 22.1472 31.6206 23.9953 30.0822 24.9192 27.9746 24.9192 25.2979 24.9192 23.2737 24.3191 21.6091 23.1189 20.304 21.9186 19.0038 20.204 18.1512 17.975 17.7464Z" fill="#000000" fill-rule="nonzero" fill-opacity="1" transform="matrix(1.00129 0 0 -1 1835.82 714.389)"/><path d="M0 0 13.717 0" stroke="#000000" stroke-width="2.28617" stroke-linecap="butt" stroke-linejoin="round" stroke-miterlimit="4" stroke-opacity="1" fill="none" fill-rule="nonzero" transform="matrix(1.00129 0 0 1 1880.97 558.585)"/><path d="M0 0-13.717 0" stroke="#000000" stroke-width="2.28617" stroke-linecap="butt" stroke-linejoin="round" stroke-miterlimit="4" stroke-opacity="1" fill="none" fill-rule="nonzero" transform="matrix(1.00129 0 0 1 2908.39 558.585)"/><path d="M6.49414 0 6.49414 2.36475 12.3024 2.36475 12.3024 30.0988 5.57968 25.7408 5.57968 28.67 13.7099 33.9353 16.789 33.9353 16.789 2.36475 22.5973 2.36475 22.5973 0 6.49414 0Z" fill="#000000" fill-rule="nonzero" fill-opacity="1" transform="matrix(1.00129 0 0 -1 1792.14 575.957)"/><path d="M4.308 2.32189C4.308 3.15539 4.59139 3.86267 5.15817 4.44374 5.72494 5.0248 6.43223 5.31534 7.28001 5.31534 8.09925 5.31534 8.79696 5.0248 9.37329 4.44374 9.95433 3.86267 10.2449 3.15539 10.2449 2.32189 10.2449 1.50268 9.95433 0.802538 9.37329 0.221472 8.79696-0.359595 8.09925-0.650129 7.28001-0.650129 6.43223-0.650129 5.72494-0.364358 5.15817 0.207184 4.59139 0.783491 4.308 1.48839 4.308 2.32189Z" fill="#000000" fill-rule="nonzero" fill-opacity="1" transform="matrix(1.00129 0 0 -1 1821.27 575.957)"/><path d="M14.5315 1.5646C16.8128 1.5646 18.518 2.81484 19.6468 5.31534 20.7803 7.81584 21.3471 11.588 21.3471 16.6319 21.3471 21.6948 20.7803 25.4765 19.6468 27.977 18.518 30.4775 16.8128 31.7277 14.5315 31.7277 12.2548 31.7277 10.5497 30.4775 9.41615 27.977 8.28736 25.4765 7.72296 21.6948 7.72296 16.6319 7.72296 11.588 8.28736 7.81584 9.41615 5.31534 10.5497 2.81484 12.2548 1.5646 14.5315 1.5646ZM14.5315-0.650129C10.9165-0.650129 8.0921 0.866836 6.05834 3.90077 4.02937 6.93947 3.01488 11.1831 3.01488 16.6319 3.01488 22.0949 4.02937 26.3433 6.05834 29.3773 8.0921 32.4159 10.9165 33.9353 14.5315 33.9353 18.1655 33.9353 20.9947 32.4159 23.0189 29.3773 25.043 26.3433 26.0552 22.0949 26.0552 16.6319 26.0552 11.1831 25.043 6.93947 23.0189 3.90077 20.9947 0.866836 18.1655-0.650129 14.5315-0.650129Z" fill="#000000" fill-rule="nonzero" fill-opacity="1" transform="matrix(1.00129 0 0 -1 1835.82 575.957)"/><path d="M0 0 6.8585 0" stroke="#000000" stroke-width="2.28617" stroke-linecap="butt" stroke-linejoin="round" stroke-miterlimit="4" stroke-opacity="1" fill="none" fill-rule="nonzero" transform="matrix(1.00129 0 0 1 1880.97 1216.14)"/><path d="M0 0-6.8585 0" stroke="#000000" stroke-width="2.28617" stroke-linecap="butt" stroke-linejoin="round" stroke-miterlimit="4" stroke-opacity="1" fill="none" fill-rule="nonzero" transform="matrix(1.00129 0 0 1 2908.39 1216.14)"/><path d="M0 0 6.8585 0" stroke="#000000" stroke-width="2.28617" stroke-linecap="butt" stroke-linejoin="round" stroke-miterlimit="4" stroke-opacity="1" fill="none" fill-rule="nonzero" transform="matrix(1.00129 0 0 1 1880.97 1181.53)"/><path d="M0 0-6.8585 0" stroke="#000000" stroke-width="2.28617" stroke-linecap="butt" stroke-linejoin="round" stroke-miterlimit="4" stroke-opacity="1" fill="none" fill-rule="nonzero" transform="matrix(1.00129 0 0 1 2908.39 1181.53)"/><path d="M0 0 6.8585 0" stroke="#000000" stroke-width="2.28617" stroke-linecap="butt" stroke-linejoin="round" stroke-miterlimit="4" stroke-opacity="1" fill="none" fill-rule="nonzero" transform="matrix(1.00129 0 0 1 1880.97 1146.92)"/><path d="M0 0-6.8585 0" stroke="#000000" stroke-width="2.28617" stroke-linecap="butt" stroke-linejoin="round" stroke-miterlimit="4" stroke-opacity="1" fill="none" fill-rule="nonzero" transform="matrix(1.00129 0 0 1 2908.39 1146.92)"/><path d="M0 0 6.8585 0" stroke="#000000" stroke-width="2.28617" stroke-linecap="butt" stroke-linejoin="round" stroke-miterlimit="4" stroke-opacity="1" fill="none" fill-rule="nonzero" transform="matrix(1.00129 0 0 1 1880.97 1077.71)"/><path d="M0 0-6.8585 0" stroke="#000000" stroke-width="2.28617" stroke-linecap="butt" stroke-linejoin="round" stroke-miterlimit="4" stroke-opacity="1" fill="none" fill-rule="nonzero" transform="matrix(1.00129 0 0 1 2908.39 1077.71)"/><path d="M0 0 6.8585 0" stroke="#000000" stroke-width="2.28617" stroke-linecap="butt" stroke-linejoin="round" stroke-miterlimit="4" stroke-opacity="1" fill="none" fill-rule="nonzero" transform="matrix(1.00129 0 0 1 1880.97 1043.1)"/><path d="M0 0-6.8585 0" stroke="#000000" stroke-width="2.28617" stroke-linecap="butt" stroke-linejoin="round" stroke-miterlimit="4" stroke-opacity="1" fill="none" fill-rule="nonzero" transform="matrix(1.00129 0 0 1 2908.39 1043.1)"/><path d="M0 0 6.8585 0" stroke="#000000" stroke-width="2.28617" stroke-linecap="butt" stroke-linejoin="round" stroke-miterlimit="4" stroke-opacity="1" fill="none" fill-rule="nonzero" transform="matrix(1.00129 0 0 1 1880.97 1008.49)"/><path d="M0 0-6.8585 0" stroke="#000000" stroke-width="2.28617" stroke-linecap="butt" stroke-linejoin="round" stroke-miterlimit="4" stroke-opacity="1" fill="none" fill-rule="nonzero" transform="matrix(1.00129 0 0 1 2908.39 1008.49)"/><path d="M0 0 6.8585 0" stroke="#000000" stroke-width="2.28617" stroke-linecap="butt" stroke-linejoin="round" stroke-miterlimit="4" stroke-opacity="1" fill="none" fill-rule="nonzero" transform="matrix(1.00129 0 0 1 1880.97 939.273)"/><path d="M0 0-6.8585 0" stroke="#000000" stroke-width="2.28617" stroke-linecap="butt" stroke-linejoin="round" stroke-miterlimit="4" stroke-opacity="1" fill="none" fill-rule="nonzero" transform="matrix(1.00129 0 0 1 2908.39 939.273)"/><path d="M0 0 6.8585 0" stroke="#000000" stroke-width="2.28617" stroke-linecap="butt" stroke-linejoin="round" stroke-miterlimit="4" stroke-opacity="1" fill="none" fill-rule="nonzero" transform="matrix(1.00129 0 0 1 1880.97 904.665)"/><path d="M0 0-6.8585 0" stroke="#000000" stroke-width="2.28617" stroke-linecap="butt" stroke-linejoin="round" stroke-miterlimit="4" stroke-opacity="1" fill="none" fill-rule="nonzero" transform="matrix(1.00129 0 0 1 2908.39 904.665)"/><path d="M0 0 6.8585 0" stroke="#000000" stroke-width="2.28617" stroke-linecap="butt" stroke-linejoin="round" stroke-miterlimit="4" stroke-opacity="1" fill="none" fill-rule="nonzero" transform="matrix(1.00129 0 0 1 1880.97 870.057)"/><path d="M0 0-6.8585 0" stroke="#000000" stroke-width="2.28617" stroke-linecap="butt" stroke-linejoin="round" stroke-miterlimit="4" stroke-opacity="1" fill="none" fill-rule="nonzero" transform="matrix(1.00129 0 0 1 2908.39 870.057)"/><path d="M0 0 6.8585 0" stroke="#000000" stroke-width="2.28617" stroke-linecap="butt" stroke-linejoin="round" stroke-miterlimit="4" stroke-opacity="1" fill="none" fill-rule="nonzero" transform="matrix(1.00129 0 0 1 1880.97 800.841)"/><path d="M0 0-6.8585 0" stroke="#000000" stroke-width="2.28617" stroke-linecap="butt" stroke-linejoin="round" stroke-miterlimit="4" stroke-opacity="1" fill="none" fill-rule="nonzero" transform="matrix(1.00129 0 0 1 2908.39 800.841)"/><path d="M0 0 6.8585 0" stroke="#000000" stroke-width="2.28617" stroke-linecap="butt" stroke-linejoin="round" stroke-miterlimit="4" stroke-opacity="1" fill="none" fill-rule="nonzero" transform="matrix(1.00129 0 0 1 1880.97 766.233)"/><path d="M0 0-6.8585 0" stroke="#000000" stroke-width="2.28617" stroke-linecap="butt" stroke-linejoin="round" stroke-miterlimit="4" stroke-opacity="1" fill="none" fill-rule="nonzero" transform="matrix(1.00129 0 0 1 2908.39 766.233)"/><path d="M0 0 6.8585 0" stroke="#000000" stroke-width="2.28617" stroke-linecap="butt" stroke-linejoin="round" stroke-miterlimit="4" stroke-opacity="1" fill="none" fill-rule="nonzero" transform="matrix(1.00129 0 0 1 1880.97 731.625)"/><path d="M0 0-6.8585 0" stroke="#000000" stroke-width="2.28617" stroke-linecap="butt" stroke-linejoin="round" stroke-miterlimit="4" stroke-opacity="1" fill="none" fill-rule="nonzero" transform="matrix(1.00129 0 0 1 2908.39 731.625)"/><path d="M0 0 6.8585 0" stroke="#000000" stroke-width="2.28617" stroke-linecap="butt" stroke-linejoin="round" stroke-miterlimit="4" stroke-opacity="1" fill="none" fill-rule="nonzero" transform="matrix(1.00129 0 0 1 1880.97 662.409)"/><path d="M0 0-6.8585 0" stroke="#000000" stroke-width="2.28617" stroke-linecap="butt" stroke-linejoin="round" stroke-miterlimit="4" stroke-opacity="1" fill="none" fill-rule="nonzero" transform="matrix(1.00129 0 0 1 2908.39 662.409)"/><path d="M0 0 6.8585 0" stroke="#000000" stroke-width="2.28617" stroke-linecap="butt" stroke-linejoin="round" stroke-miterlimit="4" stroke-opacity="1" fill="none" fill-rule="nonzero" transform="matrix(1.00129 0 0 1 1880.97 627.801)"/><path d="M0 0-6.8585 0" stroke="#000000" stroke-width="2.28617" stroke-linecap="butt" stroke-linejoin="round" stroke-miterlimit="4" stroke-opacity="1" fill="none" fill-rule="nonzero" transform="matrix(1.00129 0 0 1 2908.39 627.801)"/><path d="M0 0 6.8585 0" stroke="#000000" stroke-width="2.28617" stroke-linecap="butt" stroke-linejoin="round" stroke-miterlimit="4" stroke-opacity="1" fill="none" fill-rule="nonzero" transform="matrix(1.00129 0 0 1 1880.97 593.193)"/><path d="M0 0-6.8585 0" stroke="#000000" stroke-width="2.28617" stroke-linecap="butt" stroke-linejoin="round" stroke-miterlimit="4" stroke-opacity="1" fill="none" fill-rule="nonzero" transform="matrix(1.00129 0 0 1 2908.39 593.193)"/><path d="M11.2951 16.9676 17.1891 16.9676C19.4086 16.9676 21.097 17.5654 22.2544 18.7609 23.4166 19.9611 23.9976 21.6924 23.9976 23.9548 23.9976 26.2314 23.4166 27.965 22.2544 29.1558 21.097 30.3465 19.4086 30.9418 17.1891 30.9418L11.2951 30.9418 11.2951 16.9676ZM2.52193 0 2.52193 2.36475 6.76563 2.36475 6.76563 30.9418 2.52193 30.9418 2.52193 33.3352 18.2822 33.3352C21.6162 33.3352 24.2572 32.4898 26.2052 30.799 28.1579 29.1081 29.1343 26.8267 29.1343 23.9548 29.1343 21.097 28.1579 18.8204 26.2052 17.1248 24.2572 15.4293 21.6162 14.5815 18.2822 14.5815L11.2951 14.5815 11.2951 2.36475 16.4533 2.36475 16.4533 0 2.52193 0Z" fill="#000000" fill-rule="nonzero" fill-opacity="1" transform="matrix(6.13113e-17 -1 -1.00129 -6.12323e-17 1750.5 1155.91)"/><path d="M21.8543 23.7761 21.8543 17.8393 19.4896 17.8393C19.4181 19.0157 19.0919 19.8944 18.5108 20.4755 17.9298 21.0565 17.0796 21.3471 15.9603 21.3471 13.9361 21.3471 12.3834 20.647 11.3022 19.2467 10.2258 17.8464 9.68764 15.8365 9.68764 13.2169L9.68764 2.36475 14.4457 2.36475 14.4457 0 1.87894 0 1.87894 2.36475 5.57968 2.36475 5.57968 21.39 1.65033 21.39 1.65033 23.7333 9.68764 23.7333 9.68764 19.511C10.4926 21.1637 11.5261 22.3878 12.7882 23.1832 14.0551 23.9833 15.5983 24.3834 17.4177 24.3834 18.0845 24.3834 18.7871 24.331 19.5253 24.2262 20.2635 24.1214 21.0399 23.9714 21.8543 23.7761Z" fill="#000000" fill-rule="nonzero" fill-opacity="1" transform="matrix(6.13113e-17 -1 -1.00129 -6.12323e-17 1750.5 1125.15)"/><path d="M14.5815-7.12284C10.9617-5.49871 8.22785-2.92677 6.37984 0.592975 4.53661 4.11272 3.615 8.51362 3.615 13.7956 3.615 19.0966 4.53661 23.507 6.37984 27.0268 8.22785 30.5466 10.9617 33.1185 14.5815 34.7426L14.5815 32.5493C12.2858 30.9728 10.6402 28.7509 9.64477 25.8837 8.64936 23.0212 8.15162 18.9918 8.15162 13.7956 8.15162 8.61835 8.64936 4.59615 9.64477 1.72891 10.6402-1.13356 12.2858-3.35543 14.5815-4.93669L14.5815-7.12284Z" fill="#000000" fill-rule="nonzero" fill-opacity="1" transform="matrix(6.13113e-17 -1 -1.00129 -6.12323e-17 1750.5 1103.29)"/><path d="M9.50903 34.9426 9.50903-10.7807 5.89403-10.7807 5.89403 34.9426 9.50903 34.9426Z" fill="#000000" fill-rule="nonzero" fill-opacity="1" transform="matrix(6.13113e-17 -1 -1.00129 -6.12323e-17 1750.5 1085.45)"/><path d="M-18.1036 34.071-4.75809 34.071-4.75809 30.7632-18.1036 30.7632-18.1036 34.071Z" fill="#000000" fill-rule="nonzero" fill-opacity="1" transform="matrix(6.13113e-17 -1 -1.00129 -6.12323e-17 1742.2 1038.32)"/><path d="M14.6886 14.2671 4.22227 2.36475 8.53026 2.36475 8.08017 0-2.95059 0-2.5005 2.36475 1.34312 2.36475 13.667 16.3675 6.76563 30.9418 3.19349 30.9418 3.66501 33.3352 16.8819 33.3352 16.4104 30.9418 12.481 30.9418 17.5463 20.204 26.9696 30.9418 22.6831 30.9418 23.1546 33.3352 34.071 33.3352 33.5995 30.9418 29.8488 30.9418 18.5537 18.1036 26.0123 2.36475 29.5844 2.36475 29.1129 0 15.896 0 16.3461 2.36475 20.3183 2.36475 14.6886 14.2671Z" fill="#000000" fill-rule="nonzero" fill-opacity="1" transform="matrix(6.13113e-17 -1 -1.00129 -6.12323e-17 1750.5 1070.05)"/><path d="M4.84382 16.1389 33.4638 16.1389 33.4638 12.5239 4.84382 12.5239 4.84382 16.1389Z" fill="#000000" fill-rule="nonzero" fill-opacity="1" transform="matrix(6.13113e-17 -1 -1.00129 -6.12323e-17 1750.5 1028.83)"/><path d="M30.3632 29.8559 29.9488 28.1627 15.3602 28.1627 12.2096 16.1889 25.105 16.1889 24.5977 14.4957 11.7523 14.4957 8.32308 1.69319 24.5977 1.69319 24.2334 0 0.778726 0 8.78031 29.8559 30.3632 29.8559ZM13.6741 28.1627 10.102 28.1627 2.97202 1.69319 6.62989 1.69319 13.6741 28.1627Z" fill="#000000" fill-rule="nonzero" fill-opacity="1" transform="matrix(6.13113e-17 -1 -1.00129 -6.12323e-17 1750.5 981.845)"/><path d="M3.92935 34.7426 14.31 34.7426 14.31 32.3707 8.19448 32.3707 8.19448-3.66501 14.31-3.66501 14.31-6.02977 3.92935-6.02977 3.92935 34.7426Z" fill="#000000" fill-rule="nonzero" fill-opacity="1" transform="matrix(6.13113e-17 -1 -1.00129 -6.12323e-17 1750.5 952.627)"/><path d="M-18.1036 34.071-4.75809 34.071-4.75809 30.7632-18.1036 30.7632-18.1036 34.071Z" fill="#000000" fill-rule="nonzero" fill-opacity="1" transform="matrix(6.13113e-17 -1 -1.00129 -6.12323e-17 1742.2 903.061)"/><path d="M14.6886 14.2671 4.22227 2.36475 8.53026 2.36475 8.08017 0-2.95059 0-2.5005 2.36475 1.34312 2.36475 13.667 16.3675 6.76563 30.9418 3.19349 30.9418 3.66501 33.3352 16.8819 33.3352 16.4104 30.9418 12.481 30.9418 17.5463 20.204 26.9696 30.9418 22.6831 30.9418 23.1546 33.3352 34.071 33.3352 33.5995 30.9418 29.8488 30.9418 18.5537 18.1036 26.0123 2.36475 29.5844 2.36475 29.1129 0 15.896 0 16.3461 2.36475 20.3183 2.36475 14.6886 14.2671Z" fill="#000000" fill-rule="nonzero" fill-opacity="1" transform="matrix(6.13113e-17 -1 -1.00129 -6.12323e-17 1750.5 934.789)"/><path d="M13.9099 34.7426 13.9099-6.02977 3.52927-6.02977 3.52927-3.66501 9.64477-3.66501 9.64477 32.3707 3.52927 32.3707 3.52927 34.7426 13.9099 34.7426Z" fill="#000000" fill-rule="nonzero" fill-opacity="1" transform="matrix(6.13113e-17 -1 -1.00129 -6.12323e-17 1750.5 902.238)"/><path d="M9.50903 34.9426 9.50903-10.7807 5.89403-10.7807 5.89403 34.9426 9.50903 34.9426Z" fill="#000000" fill-rule="nonzero" fill-opacity="1" transform="matrix(6.13113e-17 -1 -1.00129 -6.12323e-17 1750.5 884.4)"/><path d="M33.4638 3.48641 33.4638 0 4.84382 0 4.84382 3.48641 33.4638 3.48641ZM4.84382 22.9045 4.84382 26.6124 33.4638 18.4179 33.4638 14.6243 4.84382 6.40841 4.84382 10.1163 28.3985 16.4961 4.84382 22.9045Z" fill="#000000" fill-rule="nonzero" fill-opacity="1" transform="matrix(6.13113e-17 -1 -1.00129 -6.12323e-17 1750.5 860.323)"/><path d="M22.7974 22.5473 21.9258 18.1536 19.4253 17.5963C19.4967 18.9204 19.0657 19.923 18.1322 20.6041 17.1939 21.2756 16.0246 21.6114 14.6243 21.6114 13.2241 21.6114 11.9357 21.2471 10.7593 20.5184 9.56854 19.7754 8.87797 18.8966 8.68744 17.8821 8.43503 16.5724 8.8589 15.5388 9.95912 14.7815 11.0736 14.0051 12.6216 13.617 14.6029 13.617L15.6745 13.617 15.2244 11.2737 13.174 11.2737C11.1784 11.2737 9.43759 10.7974 7.95158 9.84481 6.44651 8.87797 5.53681 7.58243 5.22246 5.95832 4.98432 4.71046 5.40822 3.61738 6.49414 2.6791 7.58486 1.72654 8.95413 1.25025 10.6021 1.25025 12.331 1.25025 13.898 1.64318 15.303 2.42905 16.7128 3.21969 17.6392 4.37467 18.0822 5.89403L20.3826 5.33677 19.4896 0.73586C17.8083 0.202421 16.1341-0.20004 14.4672-0.471522 12.8288-0.738239 11.438-0.871601 10.2949-0.871601 7.36096-0.871601 4.99385-0.28339 3.19349 0.893034 1.42171 2.08375 0.752528 3.78884 1.18595 6.00833 1.62889 8.34215 2.68387 10.0829 4.35086 11.2308 5.23199 11.8118 6.80373 12.2501 9.06608 12.5453L5.91546 14.31C4.81524 14.9339 4.45088 16.1913 4.82238 18.0822 5.19389 20.0016 6.20599 21.4685 7.8587 22.483 9.51139 23.4784 11.7952 23.9762 14.7101 23.9762 15.515 23.9762 16.6699 23.8571 18.175 23.619 19.6753 23.3666 21.2161 23.0093 22.7974 22.5473Z" fill="#000000" fill-rule="nonzero" fill-opacity="1" transform="matrix(6.13113e-17 -1 -1.00129 -6.12323e-17 1750.5 813.341)"/><path d="M4.84382 15.8746C4.84382 16.7081 5.12959 17.4106 5.70113 17.9821 6.27744 18.5585 6.98948 18.8466 7.83727 18.8466 8.6565 18.8466 9.35664 18.556 9.93769 17.975 10.5187 17.3939 10.8093 16.6938 10.8093 15.8746 10.8093 15.0411 10.5187 14.3362 9.93769 13.7599 9.35664 13.1883 8.6565 12.9026 7.83727 12.9026 6.98948 12.9026 6.27744 13.186 5.70113 13.7527 5.12959 14.3195 4.84382 15.0268 4.84382 15.8746Z" fill="#000000" fill-rule="nonzero" fill-opacity="1" transform="matrix(6.13113e-17 -1 -1.00129 -6.12323e-17 1750.5 780.133)"/><path d="M5.76614 22.6595 3.0006 22.6595 3.33066 24.3198 8.97178 24.3198 6.97138 14.0178C7.73153 15.0613 8.59505 15.8298 9.5619 16.3232 10.5321 16.82 11.659 17.0684 12.9426 17.0684 14.983 17.0684 16.4933 16.2599 17.4735 14.6429 18.1202 13.5793 18.4437 12.3041 18.4437 10.8171 18.4437 10.0336 18.3536 9.20017 18.1736 8.31665 17.6635 5.70948 16.6066 3.59571 15.003 1.97539 13.3993 0.35507 11.5756-0.45509 9.53189-0.45509 8.25164-0.45509 7.22308-0.208375 6.44628 0.285057 5.66947 0.78182 5.10436 1.55197 4.75094 2.59551L4.25084 0 1.37527 0 5.76614 22.6595ZM5.70613 7.48648C5.53945 6.66297 5.45608 5.92282 5.45608 5.26604 5.45608 4.31919 5.62277 3.53237 5.95618 2.90558 6.51629 1.86537 7.52649 1.34527 8.98678 1.34527 10.4571 1.34527 11.684 1.93372 12.6675 3.11062 13.6511 4.28752 14.3678 6.02284 14.8179 8.31665 15.0246 9.36686 15.128 10.3037 15.128 11.1272 15.128 12.0874 14.983 12.8842 14.6929 13.5177 14.1695 14.6846 13.1693 15.268 11.6923 15.268 10.232 15.268 9.01679 14.7413 8.0466 13.6877 7.07975 12.6375 6.40292 11.1172 6.01619 9.12681L5.70613 7.48648Z" fill="#000000" fill-rule="nonzero" fill-opacity="1" transform="matrix(6.13113e-17 -1 -1.00129 -6.12323e-17 1729.96 755.812)"/><path d="M3.39067 11.2972 23.4246 11.2972 23.4246 8.76674 3.39067 8.76674 3.39067 11.2972Z" fill="#000000" fill-rule="nonzero" fill-opacity="1" transform="matrix(6.13113e-17 -1 -1.00129 -6.12323e-17 1729.96 729.253)"/><path d="M11.6273 2.59551C10.2404 0.561776 8.42832-0.45509 6.19123-0.45509 4.35753-0.45509 2.97559 0.165033 2.04541 1.40528 1.40194 2.28212 1.08021 3.34566 1.08021 4.59591 1.08021 5.12602 1.13689 5.68778 1.25025 6.28125 1.96039 9.95862 3.59571 12.7459 6.15622 14.6429 8.3333 16.2599 10.7405 17.0684 13.3777 17.0684 15.148 17.0684 16.3366 16.9167 16.9434 16.6133L14.0328 1.65533 16.5033 1.65533 16.1932 0 11.1272 0 11.6273 2.59551ZM4.11082 4.69093C4.11082 2.46049 5.18938 1.34527 7.34646 1.34527 8.66007 1.34527 9.76194 1.86871 10.6521 2.91558 11.5423 3.96245 12.1858 5.48609 12.5825 7.48648L14.0328 15.018C14.0328 15.3214 13.616 15.4731 12.7825 15.4731 10.7821 15.4731 9.00679 14.6913 7.45648 13.1276 5.91282 11.5539 4.86596 9.3402 4.31586 6.48629 4.17916 5.8195 4.11082 5.22104 4.11082 4.69093Z" fill="#000000" fill-rule="nonzero" fill-opacity="1" transform="matrix(6.13113e-17 -1 -1.00129 -6.12323e-17 1729.96 696.363)"/><path d="M17.4435 25.9601 20.394 25.9601 20.394 24.4599 18.5987 24.4599 9.31685-0.640127 8.28164-0.640127 3.29565 13.1576 1.34527 12.4575 0.955189 13.7077 5.37607 15.238 9.37686 4.15582 17.4435 25.9601Z" fill="#000000" fill-rule="nonzero" fill-opacity="1" transform="matrix(6.13113e-17 -1 -1.00129 -6.12323e-17 1772.64 741.18)"/><path d="M2.25045 0 5.15602 14.943 2.40548 14.943 2.72054 16.6133 8.34665 16.6133 7.78154 13.6577C8.53169 14.7846 9.38521 15.6348 10.3421 16.2082 11.3022 16.7817 12.3458 17.0684 13.4727 17.0684 15.3064 17.0684 16.5566 16.5416 17.2234 15.4881 17.6201 14.8513 17.8185 14.0028 17.8185 12.9426 17.8185 12.2424 17.7285 11.4506 17.5485 10.5671L15.8181 1.65533 18.3786 1.65533 18.0686 0 12.6125 0 14.4879 9.65691C14.6946 10.7305 14.7979 11.6273 14.7979 12.3474 14.7979 12.9809 14.7146 13.481 14.5479 13.8477 14.1945 14.5979 13.3877 14.973 12.1274 14.973 10.7938 14.973 9.68357 14.4845 8.79674 13.5077 7.91322 12.5341 7.28809 11.1156 6.92137 9.25183L5.12602 0 2.25045 0Z" fill="#000000" fill-rule="nonzero" fill-opacity="1" transform="matrix(6.13113e-17 -1 -1.00129 -6.12323e-17 1772.52 716.785)"/><path d="M3.23636-7.12284 3.23636-4.93669C5.52729-3.35543 7.17521-1.13356 8.18019 1.72891 9.18518 4.59615 9.68764 8.61835 9.68764 13.7956 9.68764 18.9918 9.18518 23.0212 8.18019 25.8837 7.17521 28.7509 5.52729 30.9728 3.23636 32.5493L3.23636 34.7426C6.87041 33.1185 9.60905 30.5466 11.4523 27.0268 13.3003 23.507 14.2242 19.0966 14.2242 13.7956 14.2242 8.51362 13.3003 4.11272 11.4523 0.592975 9.60905-2.92677 6.87041-5.49871 3.23636-7.12284Z" fill="#000000" fill-rule="nonzero" fill-opacity="1" transform="matrix(6.13113e-17 -1 -1.00129 -6.12323e-17 1750.5 671.567)"/><path d="M400.103 9.06036 400.103 11.9181 478.632 11.9181 478.632 9.06036 400.103 9.06036Z" fill="#000000" fill-rule="nonzero" fill-opacity="1" transform="matrix(6.13113e-17 -1 -1.00129 -6.12323e-17 1750.94 1155.91)"/><path d="M435.129 2.20187 435.129 4.20226 463.745 4.20226 463.745 2.20187 435.129 2.20187Z" fill="#000000" fill-rule="nonzero" fill-opacity="1" transform="matrix(6.13113e-17 -1 -1.00129 -6.12323e-17 1750.94 1155.91)"/><g clip-path="url(#clip5)"><path d="M287.212-4.57234 294.77 128.77 304.192 281.729 313.614 413.767 323.036 521.319 332.459 604.298 341.881 665.11 351.303 707.519 360.726 735.707 370.148 753.585 379.571 764.417 388.993 770.685 398.415 774.156 407.838 775.994 417.26 776.922 426.682 777.375 436.105 777.585 445.527 777.681 454.949 777.718 464.371 777.736 473.795 777.74 483.218 777.745 492.637 777.745 502.061 777.745 511.484 777.745 520.903 777.745 530.327 777.745 539.75 777.745 549.174 777.745 558.593 777.745 568.017 777.745 577.44 777.745 586.864 777.745 596.283 777.745 605.706 777.745 615.13 777.745 624.549 777.745 633.973 777.745 643.396 777.745 652.82 777.745 662.239 777.745 671.662 777.745 681.086 777.745 690.509 777.745 699.928 777.745 709.352 777.745 718.776 777.745 728.195 777.745 737.618 777.745 747.042 777.745 756.465 777.745 765.884 777.745 775.308 777.745 784.732 777.745 794.155 777.745 803.574 777.745 812.998 777.745 822.421 777.745 831.84 777.745 841.264 777.745 850.688 777.745 860.111 777.745 869.53 777.745 878.954 777.745 888.377 777.745 897.796 777.745 907.22 777.745 916.643 777.745 926.067 777.745 935.486 777.745 944.91 777.745 954.333 777.745 963.757 777.745 973.176 777.745 982.599 777.745 992.023 777.745 1001.44 777.745 1010.87 777.745 1020.29 777.745 1029.71 777.745 1039.13 777.745 1048.56 777.745 1057.98 777.745 1067.4 777.745 1076.82 777.745 1086.25 777.745 1095.67 777.745 1105.09 777.745 1114.51 777.745 1123.93 777.745 1133.36 777.745 1142.78 777.745 1152.2 777.745 1161.62 777.745 1171.05 777.745" stroke="#0000FF" stroke-width="9.14467" stroke-linecap="square" stroke-linejoin="round" stroke-miterlimit="4" stroke-opacity="1" fill="none" fill-rule="nonzero" transform="matrix(1.00129 0 0 1 1689.13 473)"/></g><path d="M191.595 777.745 191.595 85.5854" stroke="#000000" stroke-width="2.28617" stroke-linecap="square" stroke-linejoin="miter" stroke-miterlimit="4" stroke-opacity="1" fill="none" fill-rule="nonzero" transform="matrix(1.00129 0 0 1 1689.13 473)"/><path d="M1217.69 777.745 1217.69 85.5854" stroke="#000000" stroke-width="2.28617" stroke-linecap="square" stroke-linejoin="miter" stroke-miterlimit="4" stroke-opacity="1" fill="none" fill-rule="nonzero" transform="matrix(1.00129 0 0 1 1689.13 473)"/><path d="M191.595 777.745 1217.69 777.745" stroke="#000000" stroke-width="2.28617" stroke-linecap="square" stroke-linejoin="miter" stroke-miterlimit="4" stroke-opacity="1" fill="none" fill-rule="nonzero" transform="matrix(1.00129 0 0 1 1689.13 473)"/><path d="M191.595 85.5854 1217.69 85.5854" stroke="#000000" stroke-width="2.28617" stroke-linecap="square" stroke-linejoin="miter" stroke-miterlimit="4" stroke-opacity="1" fill="none" fill-rule="nonzero" transform="matrix(1.00129 0 0 1 1689.13 473)"/><path d="M3.02631 0 3.02631 2.83771 8.11875 2.83771 8.11875 37.1302 3.02631 37.1302 3.02631 40.0022 18.6466 40.0022 18.6466 37.1302 13.5541 37.1302 13.5541 23.3103 34.2925 23.3103 34.2925 37.1302 29.2001 37.1302 29.2001 40.0022 44.8203 40.0022 44.8203 37.1302 39.7279 37.1302 39.7279 2.83771 44.8203 2.83771 44.8203 0 29.2001 0 29.2001 2.83771 34.2925 2.83771 34.2925 20.044 13.5541 20.044 13.5541 2.83771 18.6466 2.83771 18.6466 0 3.02631 0Z" fill="#000000" fill-rule="nonzero" fill-opacity="1" transform="matrix(1.00129 0 0 -1 2084.98 531.151)"/><path d="M16.5033 1.87752C19.1495 1.87752 21.1442 2.92058 22.4873 5.00671 23.8361 7.09855 24.5106 10.182 24.5106 14.2571 24.5106 18.3265 23.8361 21.4014 22.4873 23.4818 21.1442 25.5622 19.1495 26.6024 16.5033 26.6024 13.8627 26.6024 11.868 25.5622 10.5192 23.4818 9.17042 21.4014 8.49597 18.3265 8.49597 14.2571 8.49597 10.182 9.17325 7.09855 10.5278 5.00671 11.8881 2.92058 13.8799 1.87752 16.5033 1.87752ZM16.5033-0.780155C12.3596-0.780155 9.0275 0.591546 6.507 3.33495 3.99222 6.07835 2.73483 9.7191 2.73483 14.2571 2.73483 18.7895 3.98936 22.4216 6.49843 25.1536 9.00753 27.8912 12.3425 29.2601 16.5033 29.2601 20.6641 29.2601 23.999 27.8912 26.5081 25.1536 29.0172 22.4216 30.2717 18.7895 30.2717 14.2571 30.2717 9.7191 29.0172 6.07835 26.5081 3.33495 23.999 0.591546 20.6641-0.780155 16.5033-0.780155Z" fill="#000000" fill-rule="nonzero" fill-opacity="1" transform="matrix(1.00129 0 0 -1 2132.9 531.151)"/><path d="M29.7402 13.717 8.49597 13.717 8.49597 13.5027C8.49597 9.66192 9.21894 6.7642 10.665 4.80953 12.111 2.85485 14.2457 1.87752 17.0691 1.87752 19.2295 1.87752 21.0013 2.44334 22.3844 3.57499 23.7675 4.71237 24.7363 6.39555 25.2907 8.62457L29.2601 8.62457C28.4714 5.49823 27.0168 3.14919 24.8964 1.57746 22.7816 0.00571542 20.0011-0.780155 16.5547-0.780155 12.3939-0.780155 9.0504 0.591546 6.52415 3.33495 3.99793 6.07835 2.73483 9.7191 2.73483 14.2571 2.73483 18.7552 3.97508 22.3787 6.45557 25.1278 8.94177 27.8826 12.2024 29.2601 16.2375 29.2601 20.5412 29.2601 23.8447 27.9313 26.148 25.2736 28.4514 22.6217 29.6487 18.7694 29.7402 13.717ZM23.9276 16.5547C23.819 19.8811 23.116 22.3873 21.8186 24.0733 20.5269 25.7594 18.6665 26.6024 16.2375 26.6024 13.9685 26.6024 12.1824 25.7537 10.8793 24.0562 9.57619 22.3587 8.78171 19.8582 8.49597 16.5547L23.9276 16.5547Z" fill="#000000" fill-rule="nonzero" fill-opacity="1" transform="matrix(1.00129 0 0 -1 2165.97 531.151)"/><path d="M23.6018 34.9612 21.0042 34.9612C20.987 36.3044 20.607 37.3217 19.8639 38.0133 19.1266 38.7105 18.0522 39.0592 16.6404 39.0592 14.8 39.0592 13.5027 38.5534 12.7482 37.5417 11.9996 36.5358 11.6252 34.7383 11.6252 32.1492L11.6252 28.4799 19.581 28.4799 19.581 25.6165 11.6252 25.6165 11.6252 2.83771 17.9521 2.83771 17.9521 0 1.98039 0 1.98039 2.83771 6.69561 2.83771 6.69561 25.6165 1.98039 25.6165 1.98039 28.4799 6.69561 28.4799 6.69561 32.0464C6.69561 35.2242 7.52149 37.6246 9.17325 39.2478 10.825 40.8767 13.2512 41.6911 16.4518 41.6911 17.6463 41.6911 18.8409 41.5825 20.0354 41.3653 21.2356 41.1538 22.4245 40.8224 23.6018 40.3709L23.6018 34.9612Z" fill="#000000" fill-rule="nonzero" fill-opacity="1" transform="matrix(1.00129 0 0 -1 2198.48 531.151)"/><path d="M23.6018 34.9612 21.0042 34.9612C20.987 36.3044 20.607 37.3217 19.8639 38.0133 19.1266 38.7105 18.0522 39.0592 16.6404 39.0592 14.8 39.0592 13.5027 38.5534 12.7482 37.5417 11.9996 36.5358 11.6252 34.7383 11.6252 32.1492L11.6252 28.4799 19.581 28.4799 19.581 25.6165 11.6252 25.6165 11.6252 2.83771 17.9521 2.83771 17.9521 0 1.98039 0 1.98039 2.83771 6.69561 2.83771 6.69561 25.6165 1.98039 25.6165 1.98039 28.4799 6.69561 28.4799 6.69561 32.0464C6.69561 35.2242 7.52149 37.6246 9.17325 39.2478 10.825 40.8767 13.2512 41.6911 16.4518 41.6911 17.6463 41.6911 18.8409 41.5825 20.0354 41.3653 21.2356 41.1538 22.4245 40.8224 23.6018 40.3709L23.6018 34.9612Z" fill="#000000" fill-rule="nonzero" fill-opacity="1" transform="matrix(1.00129 0 0 -1 2218.82 531.151)"/><path d="M28.7971 2.83771 33.5124 2.83771 33.5124 0 23.8676 0 23.8676 4.44945C22.9074 2.66052 21.6814 1.34026 20.1897 0.488668 18.698-0.357214 16.8519-0.780155 14.6515-0.780155 11.1536-0.780155 8.29307 0.608692 6.06978 3.38639 3.84648 6.16408 2.73483 9.78768 2.73483 14.2571 2.73483 18.7209 3.84076 22.3358 6.05263 25.1021 8.27021 27.8741 11.1365 29.2601 14.6515 29.2601 16.8519 29.2601 18.698 28.8343 20.1897 27.9827 21.6814 27.1368 22.9074 25.8194 23.8676 24.0305L23.8676 38.8448 19.2124 38.8448 19.2124 41.6911 28.7971 41.6911 28.7971 2.83771ZM23.8676 12.834 23.8676 15.646C23.8676 19.0581 23.2103 21.6643 21.8958 23.4647 20.5869 25.2708 18.6837 26.1738 16.1861 26.1738 13.6484 26.1738 11.7309 25.1735 10.4335 23.1732 9.14178 21.1728 8.49597 18.2008 8.49597 14.2571 8.49597 10.3249 9.14178 7.35003 10.4335 5.33249 11.7309 3.31495 13.6484 2.30617 16.1861 2.30617 18.6837 2.30617 20.5869 3.2035 21.8958 4.99813 23.2103 6.79277 23.8676 9.40472 23.8676 12.834Z" fill="#000000" fill-rule="nonzero" fill-opacity="1" transform="matrix(1.00129 0 0 -1 2239.15 531.151)"/><path d="M5.33249 37.3188C5.33249 38.1418 5.62969 38.8563 6.22409 39.4621 6.82421 40.068 7.54435 40.3709 8.38452 40.3709 9.20754 40.3709 9.91628 40.068 10.5107 39.4621 11.1108 38.8563 11.4108 38.1418 11.4108 37.3188 11.4108 36.4787 11.1165 35.7643 10.5278 35.1755 9.93909 34.5868 9.22469 34.2925 8.38452 34.2925 7.54435 34.2925 6.82421 34.5868 6.22409 35.1755 5.62969 35.7643 5.33249 36.4787 5.33249 37.3188ZM11.6252 2.83771 16.2889 2.83771 16.2889 0 1.98039 0 1.98039 2.83771 6.69561 2.83771 6.69561 25.6165 1.98039 25.6165 1.98039 28.4799 11.6252 28.4799 11.6252 2.83771Z" fill="#000000" fill-rule="nonzero" fill-opacity="1" transform="matrix(1.00129 0 0 -1 2274.32 531.151)"/><path d="M2.25473 0 2.25473 2.83771 6.69561 2.83771 6.69561 25.6165 1.98039 25.6165 1.98039 28.4799 11.6252 28.4799 11.6252 23.4132C12.5397 25.345 13.7228 26.8024 15.1744 27.7855 16.6319 28.7686 18.3265 29.2601 20.2583 29.2601 23.4018 29.2601 25.7136 28.3571 27.194 26.551 28.6743 24.7449 29.4144 21.9329 29.4144 18.115L29.4144 2.83771 33.8124 2.83771 33.8124 0 20.1983 0 20.1983 2.83771 24.4591 2.83771 24.4591 16.5547C24.4591 20.0411 24.0305 22.4301 23.1732 23.7218 22.3159 25.0192 20.807 25.6679 18.6466 25.6679 16.3604 25.6679 14.6172 24.8306 13.4169 23.156 12.2225 21.4871 11.6252 19.0552 11.6252 15.8603L11.6252 2.83771 15.9117 2.83771 15.9117 0 2.25473 0Z" fill="#000000" fill-rule="nonzero" fill-opacity="1" transform="matrix(1.00129 0 0 -1 2291.89 531.151)"/><path d="M28.7971 25.6165 28.7971 0.617265C28.7971-3.47497 27.6712-6.63275 25.4193-8.85604 23.1732-11.0793 19.9696-12.191 15.8088-12.191 13.9342-12.191 12.1396-12.0195 10.4249-11.6766 8.7103-11.3394 7.06711-10.8307 5.49538-10.1506L5.49538-4.18369 8.06731-4.18369C8.38737-6.0412 9.1447-7.39861 10.3392-8.25592 11.5394-9.11324 13.2541-9.54189 15.4831-9.54189 18.3808-9.54189 20.5012-8.72462 21.8443-7.08998 23.1931-5.45536 23.8676-2.88629 23.8676 0.617265L23.8676 4.44945C22.9074 2.66052 21.6814 1.34026 20.1897 0.488668 18.698-0.357214 16.8519-0.780155 14.6515-0.780155 11.1536-0.780155 8.29307 0.608692 6.06978 3.38639 3.84648 6.16408 2.73483 9.78768 2.73483 14.2571 2.73483 18.7209 3.84076 22.3358 6.05263 25.1021 8.27021 27.8741 11.1365 29.2601 14.6515 29.2601 16.8519 29.2601 18.698 28.8343 20.1897 27.9827 21.6814 27.1368 22.9074 25.8194 23.8676 24.0305L23.8676 28.4799 33.5124 28.4799 33.5124 25.6165 28.7971 25.6165ZM23.8676 15.646C23.8676 19.0581 23.2103 21.6643 21.8958 23.4647 20.5869 25.2708 18.6837 26.1738 16.1861 26.1738 13.6484 26.1738 11.7309 25.1735 10.4335 23.1732 9.14178 21.1728 8.49597 18.2008 8.49597 14.2571 8.49597 10.3249 9.14178 7.35003 10.4335 5.33249 11.7309 3.31495 13.6484 2.30617 16.1861 2.30617 18.6837 2.30617 20.5869 3.2035 21.8958 4.99813 23.2103 6.79277 23.8676 9.40472 23.8676 12.834L23.8676 15.646Z" fill="#000000" fill-rule="nonzero" fill-opacity="1" transform="matrix(1.00129 0 0 -1 2327.27 531.151)"/><path d="M9.64477 40.0022 9.64477 25.1278 5.38392 25.1278 5.38392 40.0022 9.64477 40.0022Z" fill="#000000" fill-rule="nonzero" fill-opacity="1" transform="matrix(1.00129 0 0 -1 2362.44 531.151)"/><path d="M3.07775 1.57746 3.07775 8.22163 5.92403 8.22163C5.99262 6.10121 6.6556 4.51232 7.913 3.45497 9.17608 2.40333 11.0394 1.87752 13.5027 1.87752 15.7203 1.87752 17.4092 2.29188 18.5694 3.12062 19.7296 3.94936 20.3097 5.16102 20.3097 6.75563 20.3097 8.00158 19.8839 9.00753 19.0323 9.77337 18.1864 10.5449 16.3976 11.368 13.6656 12.2424L10.0991 13.4512C7.65295 14.2342 5.88117 15.2145 4.78381 16.3918 3.68645 17.5749 3.13777 19.078 3.13777 20.9013 3.13777 23.5075 4.09224 25.5508 6.00119 27.0311 7.91014 28.5171 10.5535 29.2601 13.9313 29.2601 15.4345 29.2601 17.0148 29.0629 18.6723 28.6685 20.3355 28.2742 22.0501 27.7026 23.8162 26.9539L23.8162 20.7384 20.9784 20.7384C20.9041 22.5788 20.2583 24.0162 19.0409 25.0507 17.8293 26.0852 16.1803 26.6024 14.0942 26.6024 12.0195 26.6024 10.4506 26.2366 9.38758 25.5051 8.32451 24.7735 7.79297 23.6762 7.79297 22.213 7.79297 21.0127 8.19591 20.0497 9.00179 19.3238 9.80766 18.6037 11.4166 17.8692 13.8285 17.1205L17.7378 15.9117C20.4355 15.0716 22.3759 14.0228 23.559 12.7654 24.7478 11.508 25.3422 9.88765 25.3422 7.90442 25.3422 5.20674 24.3106 3.08347 22.2473 1.53459 20.184-0.00857313 17.3406-0.780155 13.717-0.780155 11.8766-0.780155 10.082-0.582973 8.33308-0.188609 6.58416 0.205755 4.83239 0.794444 3.07775 1.57746Z" fill="#000000" fill-rule="nonzero" fill-opacity="1" transform="matrix(1.00129 0 0 -1 2377.54 531.151)"/><path d="M13.5541 2.83771 18.6466 2.83771 18.6466 0 3.02631 0 3.02631 2.83771 8.11875 2.83771 8.11875 37.1302 3.02631 37.1302 3.02631 40.0022 18.6466 40.0022 18.6466 37.1302 13.5541 37.1302 13.5541 2.83771Z" fill="#000000" fill-rule="nonzero" fill-opacity="1" transform="matrix(1.00129 0 0 -1 2423.2 531.151)"/><path d="M2.25473 0 2.25473 2.83771 6.69561 2.83771 6.69561 25.6165 1.98039 25.6165 1.98039 28.4799 11.6252 28.4799 11.6252 23.4132C12.5397 25.345 13.7228 26.8024 15.1744 27.7855 16.6319 28.7686 18.3265 29.2601 20.2583 29.2601 23.4018 29.2601 25.7136 28.3571 27.194 26.551 28.6743 24.7449 29.4144 21.9329 29.4144 18.115L29.4144 2.83771 33.8124 2.83771 33.8124 0 20.1983 0 20.1983 2.83771 24.4591 2.83771 24.4591 16.5547C24.4591 20.0411 24.0305 22.4301 23.1732 23.7218 22.3159 25.0192 20.807 25.6679 18.6466 25.6679 16.3604 25.6679 14.6172 24.8306 13.4169 23.156 12.2225 21.4871 11.6252 19.0552 11.6252 15.8603L11.6252 2.83771 15.9117 2.83771 15.9117 0 2.25473 0Z" fill="#000000" fill-rule="nonzero" fill-opacity="1" transform="matrix(1.00129 0 0 -1 2444.9 531.151)"/><path d="M29.7402 13.717 8.49597 13.717 8.49597 13.5027C8.49597 9.66192 9.21894 6.7642 10.665 4.80953 12.111 2.85485 14.2457 1.87752 17.0691 1.87752 19.2295 1.87752 21.0013 2.44334 22.3844 3.57499 23.7675 4.71237 24.7363 6.39555 25.2907 8.62457L29.2601 8.62457C28.4714 5.49823 27.0168 3.14919 24.8964 1.57746 22.7816 0.00571542 20.0011-0.780155 16.5547-0.780155 12.3939-0.780155 9.0504 0.591546 6.52415 3.33495 3.99793 6.07835 2.73483 9.7191 2.73483 14.2571 2.73483 18.7552 3.97508 22.3787 6.45557 25.1278 8.94177 27.8826 12.2024 29.2601 16.2375 29.2601 20.5412 29.2601 23.8447 27.9313 26.148 25.2736 28.4514 22.6217 29.6487 18.7694 29.7402 13.717ZM23.9276 16.5547C23.819 19.8811 23.116 22.3873 21.8186 24.0733 20.5269 25.7594 18.6665 26.6024 16.2375 26.6024 13.9685 26.6024 12.1824 25.7537 10.8793 24.0562 9.57619 22.3587 8.78171 19.8582 8.49597 16.5547L23.9276 16.5547Z" fill="#000000" fill-rule="nonzero" fill-opacity="1" transform="matrix(1.00129 0 0 -1 2480.29 531.151)"/><path d="M28.7971 25.6165 28.7971-8.54741 33.5124-8.54741 33.5124-11.4108 19.2124-11.4108 19.2124-8.54741 23.8676-8.54741 23.8676 4.44945C22.9074 2.66052 21.6814 1.34026 20.1897 0.488668 18.698-0.357214 16.8519-0.780155 14.6515-0.780155 11.1536-0.780155 8.29307 0.608692 6.06978 3.38639 3.84648 6.16408 2.73483 9.78768 2.73483 14.2571 2.73483 18.7209 3.84076 22.3358 6.05263 25.1021 8.27021 27.8741 11.1365 29.2601 14.6515 29.2601 16.8519 29.2601 18.698 28.8343 20.1897 27.9827 21.6814 27.1368 22.9074 25.8194 23.8676 24.0305L23.8676 28.4799 33.5124 28.4799 33.5124 25.6165 28.7971 25.6165ZM23.8676 15.646C23.8676 19.0581 23.2103 21.6643 21.8958 23.4647 20.5869 25.2708 18.6837 26.1738 16.1861 26.1738 13.6484 26.1738 11.7309 25.1735 10.4335 23.1732 9.14178 21.1728 8.49597 18.2008 8.49597 14.2571 8.49597 10.3249 9.14178 7.35003 10.4335 5.33249 11.7309 3.31495 13.6484 2.30617 16.1861 2.30617 18.6837 2.30617 20.5869 3.2035 21.8958 4.99813 23.2103 6.79277 23.8676 9.40472 23.8676 12.834L23.8676 15.646Z" fill="#000000" fill-rule="nonzero" fill-opacity="1" transform="matrix(1.00129 0 0 -1 2512.8 531.151)"/><path d="M19.4267 28.4799 28.6428 28.4799 28.6428 2.83771 33.298 2.83771 33.298 0 23.7133 0 23.7133 5.041C22.7988 3.14348 21.6186 1.69748 20.1726 0.702997 18.7265-0.285771 17.0491-0.780155 15.1401-0.780155 11.9795-0.780155 9.65334 0.117166 8.16162 1.91181 6.66989 3.71216 5.92403 6.52987 5.92403 10.3649L5.92403 25.6165 1.47458 25.6165 1.47458 28.4799 10.8793 28.4799 10.8793 11.8995C10.8793 8.43024 11.3022 6.05263 12.1481 4.76666 12.9997 3.48069 14.5143 2.83771 16.6919 2.83771 18.9781 2.83771 20.7184 3.67787 21.9129 5.35821 23.1132 7.03854 23.7133 9.47614 23.7133 12.6711L23.7133 25.6165 19.4267 25.6165 19.4267 28.4799Z" fill="#000000" fill-rule="nonzero" fill-opacity="1" transform="matrix(1.00129 0 0 -1 2547.97 531.151)"/><path d="M21.8358 8.95035 21.8358 14.9773 15.4831 14.9773C13.0369 14.9773 11.2137 14.4486 10.0134 13.3912 8.81892 12.3396 8.22163 10.725 8.22163 8.54741 8.22163 6.56416 8.82749 4.99242 10.0391 3.83219 11.2565 2.67196 12.9026 2.09184 14.9773 2.09184 17.0291 2.09184 18.6837 2.72625 19.9411 3.99508 21.2042 5.2639 21.8358 6.91566 21.8358 8.95035ZM26.7653 17.7892 26.7653 2.83771 31.1548 2.83771 31.1548 0 21.8358 0 21.8358 3.07775C20.7441 1.75749 19.4839 0.783012 18.055 0.154316 16.6261-0.468665 14.9573-0.780155 13.0483-0.780155 9.88765-0.780155 7.37861 0.0600119 5.52109 1.74035 3.66358 3.42068 2.73483 5.6897 2.73483 8.54741 2.73483 11.4966 3.7979 13.7828 5.92403 15.4059 8.05017 17.0291 11.0508 17.8407 14.9258 17.8407L21.8358 17.8407 21.8358 19.7954C21.8358 21.9615 21.1785 23.6361 19.8639 24.8192 18.5551 26.008 16.7119 26.6024 14.3343 26.6024 12.3682 26.6024 10.805 26.1566 9.64477 25.265 8.48454 24.3734 7.76154 23.0503 7.47577 21.2957L4.92955 21.2957 4.92955 27.0568C6.64418 27.7883 8.31022 28.337 9.92768 28.7028 11.5452 29.0743 13.1197 29.2601 14.6515 29.2601 18.6009 29.2601 21.6071 28.2799 23.6704 26.3195 25.7337 24.3648 26.7653 21.5214 26.7653 17.7892Z" fill="#000000" fill-rule="nonzero" fill-opacity="1" transform="matrix(1.00129 0 0 -1 2583.35 531.151)"/><path d="M11.2565 2.83771 15.9117 2.83771 15.9117 0 1.57746 0 1.57746 2.83771 6.32697 2.83771 6.32697 38.8448 1.57746 38.8448 1.57746 41.6911 11.2565 41.6911 11.2565 2.83771Z" fill="#000000" fill-rule="nonzero" fill-opacity="1" transform="matrix(1.00129 0 0 -1 2616.1 531.151)"/><path d="M5.33249 37.3188C5.33249 38.1418 5.62969 38.8563 6.22409 39.4621 6.82421 40.068 7.54435 40.3709 8.38452 40.3709 9.20754 40.3709 9.91628 40.068 10.5107 39.4621 11.1108 38.8563 11.4108 38.1418 11.4108 37.3188 11.4108 36.4787 11.1165 35.7643 10.5278 35.1755 9.93909 34.5868 9.22469 34.2925 8.38452 34.2925 7.54435 34.2925 6.82421 34.5868 6.22409 35.1755 5.62969 35.7643 5.33249 36.4787 5.33249 37.3188ZM11.6252 2.83771 16.2889 2.83771 16.2889 0 1.98039 0 1.98039 2.83771 6.69561 2.83771 6.69561 25.6165 1.98039 25.6165 1.98039 28.4799 11.6252 28.4799 11.6252 2.83771Z" fill="#000000" fill-rule="nonzero" fill-opacity="1" transform="matrix(1.00129 0 0 -1 2633.68 531.151)"/><path d="M5.92403 25.6165 1.57746 25.6165 1.57746 28.4799 5.92403 28.4799 5.92403 37.3188 10.8793 37.3188 10.8793 28.4799 20.1469 28.4799 20.1469 25.6165 10.8793 25.6165 10.8793 7.52721C10.8793 5.1153 11.1108 3.56928 11.5737 2.88914 12.0367 2.21472 12.894 1.87752 14.1457 1.87752 15.4316 1.87752 16.3689 2.25473 16.9576 3.00917 17.5464 3.76932 17.8607 4.99813 17.9007 6.69561L21.6214 6.69561C21.4785 4.10653 20.7727 2.21187 19.5039 1.01163 18.235-0.182893 16.3061-0.780155 13.717-0.780155 10.8765-0.780155 8.86744-0.151459 7.6901 1.10593 6.51272 2.36904 5.92403 4.50947 5.92403 7.52721L5.92403 25.6165Z" fill="#000000" fill-rule="nonzero" fill-opacity="1" transform="matrix(1.00129 0 0 -1 2651.24 531.151)"/><path d="M11.8395-5.22104 13.717-0.480095 3.07775 25.6165-0.162889 25.6165-0.162889 28.4799 12.9369 28.4799 12.9369 25.6165 8.38452 25.6165 16.4004 6.02691 24.4077 25.6165 20.1469 25.6165 20.1469 28.4799 30.8375 28.4799 30.8375 25.6165 27.6483 25.6165 14.6-6.42985C13.7084-8.64746 12.7168-10.162 11.6252-10.9736 10.5392-11.7852 9.00461-12.191 7.02139-12.191 6.18123-12.191 5.31819-12.1196 4.43231-11.9767 3.55213-11.8337 2.66339-11.628 1.76606-11.3594L1.76606-5.92403 4.28656-5.92403C4.39516-7.1357 4.70379-8.00445 5.21246-8.53026 5.72113-9.0618 6.50986-9.32756 7.57865-9.32756 8.5617-9.32756 9.35328-9.05322 9.9534-8.50454 10.5535-7.96158 11.1822-6.86708 11.8395-5.22104Z" fill="#000000" fill-rule="nonzero" fill-opacity="1" transform="matrix(1.00129 0 0 -1 2673.32 531.151)"/></g></g></g></g></g></svg>