<?xml version="1.0" encoding="utf-8" standalone="no"?>
<!DOCTYPE svg PUBLIC "-//W3C//DTD SVG 1.1//EN"
  "http://www.w3.org/Graphics/SVG/1.1/DTD/svg11.dtd">
<svg xmlns:xlink="http://www.w3.org/1999/xlink" width="518.505625pt" height="203.722375pt" viewBox="0 0 518.505625 203.722375" xmlns="http://www.w3.org/2000/svg" version="1.1">
 <metadata>
  <rdf:RDF xmlns:dc="http://purl.org/dc/elements/1.1/" xmlns:cc="http://creativecommons.org/ns#" xmlns:rdf="http://www.w3.org/1999/02/22-rdf-syntax-ns#">
   <cc:Work>
    <dc:type rdf:resource="http://purl.org/dc/dcmitype/StillImage"/>
    <dc:date>2025-09-08T14:37:49.082129</dc:date>
    <dc:format>image/svg+xml</dc:format>
    <dc:creator>
     <cc:Agent>
      <dc:title>Matplotlib v3.10.5, https://matplotlib.org/</dc:title>
     </cc:Agent>
    </dc:creator>
   </cc:Work>
  </rdf:RDF>
 </metadata>
 <defs>
  <style type="text/css">*{stroke-linejoin: round; stroke-linecap: butt}</style>
 </defs>
 <g id="figure_1">
  <g id="patch_1">
   <path d="M 0 203.722375 
L 518.505625 203.722375 
L 518.505625 0 
L 0 0 
z
" style="fill: #ffffff"/>
  </g>
  <g id="axes_1">
   <g id="patch_2">
    <path d="M 43.78125 166.166125 
L 212.423281 166.166125 
L 212.423281 22.318125 
L 43.78125 22.318125 
z
" style="fill: #ffffff"/>
   </g>
   <g id="matplotlib.axis_1">
    <g id="xtick_1">
     <g id="line2d_1">
      <defs>
       <path id="m995a6e5756" d="M 0 0 
L 0 3.5 
" style="stroke: #000000; stroke-width: 0.8"/>
      </defs>
      <g>
       <use xlink:href="#m995a6e5756" x="82.108984" y="166.166125" style="stroke: #000000; stroke-width: 0.8"/>
      </g>
     </g>
     <g id="text_1">
      <!-- $\mathdefault{10^{1}}$ -->
      <g transform="translate(73.308984 180.764563) scale(0.1 -0.1)">
       <defs>
        <path id="DejaVuSans-31" d="M 794 531 
L 1825 531 
L 1825 4091 
L 703 3866 
L 703 4441 
L 1819 4666 
L 2450 4666 
L 2450 531 
L 3481 531 
L 3481 0 
L 794 0 
L 794 531 
z
" transform="scale(0.015625)"/>
        <path id="DejaVuSans-30" d="M 2034 4250 
Q 1547 4250 1301 3770 
Q 1056 3291 1056 2328 
Q 1056 1369 1301 889 
Q 1547 409 2034 409 
Q 2525 409 2770 889 
Q 3016 1369 3016 2328 
Q 3016 3291 2770 3770 
Q 2525 4250 2034 4250 
z
M 2034 4750 
Q 2819 4750 3233 4129 
Q 3647 3509 3647 2328 
Q 3647 1150 3233 529 
Q 2819 -91 2034 -91 
Q 1250 -91 836 529 
Q 422 1150 422 2328 
Q 422 3509 836 4129 
Q 1250 4750 2034 4750 
z
" transform="scale(0.015625)"/>
       </defs>
       <use xlink:href="#DejaVuSans-31" transform="translate(0 0.684375)"/>
       <use xlink:href="#DejaVuSans-30" transform="translate(63.623047 0.684375)"/>
       <use xlink:href="#DejaVuSans-31" transform="translate(128.203125 38.965625) scale(0.7)"/>
      </g>
     </g>
    </g>
    <g id="xtick_2">
     <g id="line2d_2">
      <g>
       <use xlink:href="#m995a6e5756" x="143.433359" y="166.166125" style="stroke: #000000; stroke-width: 0.8"/>
      </g>
     </g>
     <g id="text_2">
      <!-- $\mathdefault{10^{3}}$ -->
      <g transform="translate(134.633359 180.764563) scale(0.1 -0.1)">
       <defs>
        <path id="DejaVuSans-33" d="M 2597 2516 
Q 3050 2419 3304 2112 
Q 3559 1806 3559 1356 
Q 3559 666 3084 287 
Q 2609 -91 1734 -91 
Q 1441 -91 1130 -33 
Q 819 25 488 141 
L 488 750 
Q 750 597 1062 519 
Q 1375 441 1716 441 
Q 2309 441 2620 675 
Q 2931 909 2931 1356 
Q 2931 1769 2642 2001 
Q 2353 2234 1838 2234 
L 1294 2234 
L 1294 2753 
L 1863 2753 
Q 2328 2753 2575 2939 
Q 2822 3125 2822 3475 
Q 2822 3834 2567 4026 
Q 2313 4219 1838 4219 
Q 1578 4219 1281 4162 
Q 984 4106 628 3988 
L 628 4550 
Q 988 4650 1302 4700 
Q 1616 4750 1894 4750 
Q 2613 4750 3031 4423 
Q 3450 4097 3450 3541 
Q 3450 3153 3228 2886 
Q 3006 2619 2597 2516 
z
" transform="scale(0.015625)"/>
       </defs>
       <use xlink:href="#DejaVuSans-31" transform="translate(0 0.765625)"/>
       <use xlink:href="#DejaVuSans-30" transform="translate(63.623047 0.765625)"/>
       <use xlink:href="#DejaVuSans-33" transform="translate(128.203125 39.046875) scale(0.7)"/>
      </g>
     </g>
    </g>
    <g id="xtick_3">
     <g id="line2d_3">
      <g>
       <use xlink:href="#m995a6e5756" x="204.757734" y="166.166125" style="stroke: #000000; stroke-width: 0.8"/>
      </g>
     </g>
     <g id="text_3">
      <!-- $\mathdefault{10^{5}}$ -->
      <g transform="translate(195.957734 180.764563) scale(0.1 -0.1)">
       <defs>
        <path id="DejaVuSans-35" d="M 691 4666 
L 3169 4666 
L 3169 4134 
L 1269 4134 
L 1269 2991 
Q 1406 3038 1543 3061 
Q 1681 3084 1819 3084 
Q 2600 3084 3056 2656 
Q 3513 2228 3513 1497 
Q 3513 744 3044 326 
Q 2575 -91 1722 -91 
Q 1428 -91 1123 -41 
Q 819 9 494 109 
L 494 744 
Q 775 591 1075 516 
Q 1375 441 1709 441 
Q 2250 441 2565 725 
Q 2881 1009 2881 1497 
Q 2881 1984 2565 2268 
Q 2250 2553 1709 2553 
Q 1456 2553 1204 2497 
Q 953 2441 691 2322 
L 691 4666 
z
" transform="scale(0.015625)"/>
       </defs>
       <use xlink:href="#DejaVuSans-31" transform="translate(0 0.684375)"/>
       <use xlink:href="#DejaVuSans-30" transform="translate(63.623047 0.684375)"/>
       <use xlink:href="#DejaVuSans-35" transform="translate(128.203125 38.965625) scale(0.7)"/>
      </g>
     </g>
    </g>
    <g id="text_4">
     <!-- Epoch -->
     <g transform="translate(112.791328 194.442688) scale(0.1 -0.1)">
      <defs>
       <path id="DejaVuSans-45" d="M 628 4666 
L 3578 4666 
L 3578 4134 
L 1259 4134 
L 1259 2753 
L 3481 2753 
L 3481 2222 
L 1259 2222 
L 1259 531 
L 3634 531 
L 3634 0 
L 628 0 
L 628 4666 
z
" transform="scale(0.015625)"/>
       <path id="DejaVuSans-70" d="M 1159 525 
L 1159 -1331 
L 581 -1331 
L 581 3500 
L 1159 3500 
L 1159 2969 
Q 1341 3281 1617 3432 
Q 1894 3584 2278 3584 
Q 2916 3584 3314 3078 
Q 3713 2572 3713 1747 
Q 3713 922 3314 415 
Q 2916 -91 2278 -91 
Q 1894 -91 1617 61 
Q 1341 213 1159 525 
z
M 3116 1747 
Q 3116 2381 2855 2742 
Q 2594 3103 2138 3103 
Q 1681 3103 1420 2742 
Q 1159 2381 1159 1747 
Q 1159 1113 1420 752 
Q 1681 391 2138 391 
Q 2594 391 2855 752 
Q 3116 1113 3116 1747 
z
" transform="scale(0.015625)"/>
       <path id="DejaVuSans-6f" d="M 1959 3097 
Q 1497 3097 1228 2736 
Q 959 2375 959 1747 
Q 959 1119 1226 758 
Q 1494 397 1959 397 
Q 2419 397 2687 759 
Q 2956 1122 2956 1747 
Q 2956 2369 2687 2733 
Q 2419 3097 1959 3097 
z
M 1959 3584 
Q 2709 3584 3137 3096 
Q 3566 2609 3566 1747 
Q 3566 888 3137 398 
Q 2709 -91 1959 -91 
Q 1206 -91 779 398 
Q 353 888 353 1747 
Q 353 2609 779 3096 
Q 1206 3584 1959 3584 
z
" transform="scale(0.015625)"/>
       <path id="DejaVuSans-63" d="M 3122 3366 
L 3122 2828 
Q 2878 2963 2633 3030 
Q 2388 3097 2138 3097 
Q 1578 3097 1268 2742 
Q 959 2388 959 1747 
Q 959 1106 1268 751 
Q 1578 397 2138 397 
Q 2388 397 2633 464 
Q 2878 531 3122 666 
L 3122 134 
Q 2881 22 2623 -34 
Q 2366 -91 2075 -91 
Q 1284 -91 818 406 
Q 353 903 353 1747 
Q 353 2603 823 3093 
Q 1294 3584 2113 3584 
Q 2378 3584 2631 3529 
Q 2884 3475 3122 3366 
z
" transform="scale(0.015625)"/>
       <path id="DejaVuSans-68" d="M 3513 2113 
L 3513 0 
L 2938 0 
L 2938 2094 
Q 2938 2591 2744 2837 
Q 2550 3084 2163 3084 
Q 1697 3084 1428 2787 
Q 1159 2491 1159 1978 
L 1159 0 
L 581 0 
L 581 4863 
L 1159 4863 
L 1159 2956 
Q 1366 3272 1645 3428 
Q 1925 3584 2291 3584 
Q 2894 3584 3203 3211 
Q 3513 2838 3513 2113 
z
" transform="scale(0.015625)"/>
      </defs>
      <use xlink:href="#DejaVuSans-45"/>
      <use xlink:href="#DejaVuSans-70" transform="translate(63.183594 0)"/>
      <use xlink:href="#DejaVuSans-6f" transform="translate(126.660156 0)"/>
      <use xlink:href="#DejaVuSans-63" transform="translate(187.841797 0)"/>
      <use xlink:href="#DejaVuSans-68" transform="translate(242.822266 0)"/>
     </g>
    </g>
   </g>
   <g id="matplotlib.axis_2">
    <g id="ytick_1">
     <g id="line2d_4">
      <defs>
       <path id="m9734232b9e" d="M 0 0 
L -3.5 0 
" style="stroke: #000000; stroke-width: 0.8"/>
      </defs>
      <g>
       <use xlink:href="#m9734232b9e" x="43.78125" y="148.959853" style="stroke: #000000; stroke-width: 0.8"/>
      </g>
     </g>
     <g id="text_5">
      <!-- 0.9 -->
      <g transform="translate(20.878125 152.759072) scale(0.1 -0.1)">
       <defs>
        <path id="DejaVuSans-2e" d="M 684 794 
L 1344 794 
L 1344 0 
L 684 0 
L 684 794 
z
" transform="scale(0.015625)"/>
        <path id="DejaVuSans-39" d="M 703 97 
L 703 672 
Q 941 559 1184 500 
Q 1428 441 1663 441 
Q 2288 441 2617 861 
Q 2947 1281 2994 2138 
Q 2813 1869 2534 1725 
Q 2256 1581 1919 1581 
Q 1219 1581 811 2004 
Q 403 2428 403 3163 
Q 403 3881 828 4315 
Q 1253 4750 1959 4750 
Q 2769 4750 3195 4129 
Q 3622 3509 3622 2328 
Q 3622 1225 3098 567 
Q 2575 -91 1691 -91 
Q 1453 -91 1209 -44 
Q 966 3 703 97 
z
M 1959 2075 
Q 2384 2075 2632 2365 
Q 2881 2656 2881 3163 
Q 2881 3666 2632 3958 
Q 2384 4250 1959 4250 
Q 1534 4250 1286 3958 
Q 1038 3666 1038 3163 
Q 1038 2656 1286 2365 
Q 1534 2075 1959 2075 
z
" transform="scale(0.015625)"/>
       </defs>
       <use xlink:href="#DejaVuSans-30"/>
       <use xlink:href="#DejaVuSans-2e" transform="translate(63.623047 0)"/>
       <use xlink:href="#DejaVuSans-39" transform="translate(95.410156 0)"/>
      </g>
     </g>
    </g>
    <g id="ytick_2">
     <g id="line2d_5">
      <g>
       <use xlink:href="#m9734232b9e" x="43.78125" y="126.933132" style="stroke: #000000; stroke-width: 0.8"/>
      </g>
     </g>
     <g id="text_6">
      <!-- 1.0 -->
      <g transform="translate(20.878125 130.73235) scale(0.1 -0.1)">
       <use xlink:href="#DejaVuSans-31"/>
       <use xlink:href="#DejaVuSans-2e" transform="translate(63.623047 0)"/>
       <use xlink:href="#DejaVuSans-30" transform="translate(95.410156 0)"/>
      </g>
     </g>
    </g>
    <g id="ytick_3">
     <g id="line2d_6">
      <g>
       <use xlink:href="#m9734232b9e" x="43.78125" y="104.90641" style="stroke: #000000; stroke-width: 0.8"/>
      </g>
     </g>
     <g id="text_7">
      <!-- 1.1 -->
      <g transform="translate(20.878125 108.705628) scale(0.1 -0.1)">
       <use xlink:href="#DejaVuSans-31"/>
       <use xlink:href="#DejaVuSans-2e" transform="translate(63.623047 0)"/>
       <use xlink:href="#DejaVuSans-31" transform="translate(95.410156 0)"/>
      </g>
     </g>
    </g>
    <g id="ytick_4">
     <g id="line2d_7">
      <g>
       <use xlink:href="#m9734232b9e" x="43.78125" y="82.879688" style="stroke: #000000; stroke-width: 0.8"/>
      </g>
     </g>
     <g id="text_8">
      <!-- 1.2 -->
      <g transform="translate(20.878125 86.678907) scale(0.1 -0.1)">
       <defs>
        <path id="DejaVuSans-32" d="M 1228 531 
L 3431 531 
L 3431 0 
L 469 0 
L 469 531 
Q 828 903 1448 1529 
Q 2069 2156 2228 2338 
Q 2531 2678 2651 2914 
Q 2772 3150 2772 3378 
Q 2772 3750 2511 3984 
Q 2250 4219 1831 4219 
Q 1534 4219 1204 4116 
Q 875 4013 500 3803 
L 500 4441 
Q 881 4594 1212 4672 
Q 1544 4750 1819 4750 
Q 2544 4750 2975 4387 
Q 3406 4025 3406 3419 
Q 3406 3131 3298 2873 
Q 3191 2616 2906 2266 
Q 2828 2175 2409 1742 
Q 1991 1309 1228 531 
z
" transform="scale(0.015625)"/>
       </defs>
       <use xlink:href="#DejaVuSans-31"/>
       <use xlink:href="#DejaVuSans-2e" transform="translate(63.623047 0)"/>
       <use xlink:href="#DejaVuSans-32" transform="translate(95.410156 0)"/>
      </g>
     </g>
    </g>
    <g id="ytick_5">
     <g id="line2d_8">
      <g>
       <use xlink:href="#m9734232b9e" x="43.78125" y="60.852966" style="stroke: #000000; stroke-width: 0.8"/>
      </g>
     </g>
     <g id="text_9">
      <!-- 1.3 -->
      <g transform="translate(20.878125 64.652185) scale(0.1 -0.1)">
       <use xlink:href="#DejaVuSans-31"/>
       <use xlink:href="#DejaVuSans-2e" transform="translate(63.623047 0)"/>
       <use xlink:href="#DejaVuSans-33" transform="translate(95.410156 0)"/>
      </g>
     </g>
    </g>
    <g id="ytick_6">
     <g id="line2d_9">
      <g>
       <use xlink:href="#m9734232b9e" x="43.78125" y="38.826244" style="stroke: #000000; stroke-width: 0.8"/>
      </g>
     </g>
     <g id="text_10">
      <!-- 1.4 -->
      <g transform="translate(20.878125 42.625463) scale(0.1 -0.1)">
       <defs>
        <path id="DejaVuSans-34" d="M 2419 4116 
L 825 1625 
L 2419 1625 
L 2419 4116 
z
M 2253 4666 
L 3047 4666 
L 3047 1625 
L 3713 1625 
L 3713 1100 
L 3047 1100 
L 3047 0 
L 2419 0 
L 2419 1100 
L 313 1100 
L 313 1709 
L 2253 4666 
z
" transform="scale(0.015625)"/>
       </defs>
       <use xlink:href="#DejaVuSans-31"/>
       <use xlink:href="#DejaVuSans-2e" transform="translate(63.623047 0)"/>
       <use xlink:href="#DejaVuSans-34" transform="translate(95.410156 0)"/>
      </g>
     </g>
    </g>
    <g id="text_11">
     <!-- Mean Squared Error (MSE) -->
     <g transform="translate(14.798438 160.142125) rotate(-90) scale(0.1 -0.1)">
      <defs>
       <path id="DejaVuSans-4d" d="M 628 4666 
L 1569 4666 
L 2759 1491 
L 3956 4666 
L 4897 4666 
L 4897 0 
L 4281 0 
L 4281 4097 
L 3078 897 
L 2444 897 
L 1241 4097 
L 1241 0 
L 628 0 
L 628 4666 
z
" transform="scale(0.015625)"/>
       <path id="DejaVuSans-65" d="M 3597 1894 
L 3597 1613 
L 953 1613 
Q 991 1019 1311 708 
Q 1631 397 2203 397 
Q 2534 397 2845 478 
Q 3156 559 3463 722 
L 3463 178 
Q 3153 47 2828 -22 
Q 2503 -91 2169 -91 
Q 1331 -91 842 396 
Q 353 884 353 1716 
Q 353 2575 817 3079 
Q 1281 3584 2069 3584 
Q 2775 3584 3186 3129 
Q 3597 2675 3597 1894 
z
M 3022 2063 
Q 3016 2534 2758 2815 
Q 2500 3097 2075 3097 
Q 1594 3097 1305 2825 
Q 1016 2553 972 2059 
L 3022 2063 
z
" transform="scale(0.015625)"/>
       <path id="DejaVuSans-61" d="M 2194 1759 
Q 1497 1759 1228 1600 
Q 959 1441 959 1056 
Q 959 750 1161 570 
Q 1363 391 1709 391 
Q 2188 391 2477 730 
Q 2766 1069 2766 1631 
L 2766 1759 
L 2194 1759 
z
M 3341 1997 
L 3341 0 
L 2766 0 
L 2766 531 
Q 2569 213 2275 61 
Q 1981 -91 1556 -91 
Q 1019 -91 701 211 
Q 384 513 384 1019 
Q 384 1609 779 1909 
Q 1175 2209 1959 2209 
L 2766 2209 
L 2766 2266 
Q 2766 2663 2505 2880 
Q 2244 3097 1772 3097 
Q 1472 3097 1187 3025 
Q 903 2953 641 2809 
L 641 3341 
Q 956 3463 1253 3523 
Q 1550 3584 1831 3584 
Q 2591 3584 2966 3190 
Q 3341 2797 3341 1997 
z
" transform="scale(0.015625)"/>
       <path id="DejaVuSans-6e" d="M 3513 2113 
L 3513 0 
L 2938 0 
L 2938 2094 
Q 2938 2591 2744 2837 
Q 2550 3084 2163 3084 
Q 1697 3084 1428 2787 
Q 1159 2491 1159 1978 
L 1159 0 
L 581 0 
L 581 3500 
L 1159 3500 
L 1159 2956 
Q 1366 3272 1645 3428 
Q 1925 3584 2291 3584 
Q 2894 3584 3203 3211 
Q 3513 2838 3513 2113 
z
" transform="scale(0.015625)"/>
       <path id="DejaVuSans-20" transform="scale(0.015625)"/>
       <path id="DejaVuSans-53" d="M 3425 4513 
L 3425 3897 
Q 3066 4069 2747 4153 
Q 2428 4238 2131 4238 
Q 1616 4238 1336 4038 
Q 1056 3838 1056 3469 
Q 1056 3159 1242 3001 
Q 1428 2844 1947 2747 
L 2328 2669 
Q 3034 2534 3370 2195 
Q 3706 1856 3706 1288 
Q 3706 609 3251 259 
Q 2797 -91 1919 -91 
Q 1588 -91 1214 -16 
Q 841 59 441 206 
L 441 856 
Q 825 641 1194 531 
Q 1563 422 1919 422 
Q 2459 422 2753 634 
Q 3047 847 3047 1241 
Q 3047 1584 2836 1778 
Q 2625 1972 2144 2069 
L 1759 2144 
Q 1053 2284 737 2584 
Q 422 2884 422 3419 
Q 422 4038 858 4394 
Q 1294 4750 2059 4750 
Q 2388 4750 2728 4690 
Q 3069 4631 3425 4513 
z
" transform="scale(0.015625)"/>
       <path id="DejaVuSans-71" d="M 947 1747 
Q 947 1113 1208 752 
Q 1469 391 1925 391 
Q 2381 391 2643 752 
Q 2906 1113 2906 1747 
Q 2906 2381 2643 2742 
Q 2381 3103 1925 3103 
Q 1469 3103 1208 2742 
Q 947 2381 947 1747 
z
M 2906 525 
Q 2725 213 2448 61 
Q 2172 -91 1784 -91 
Q 1150 -91 751 415 
Q 353 922 353 1747 
Q 353 2572 751 3078 
Q 1150 3584 1784 3584 
Q 2172 3584 2448 3432 
Q 2725 3281 2906 2969 
L 2906 3500 
L 3481 3500 
L 3481 -1331 
L 2906 -1331 
L 2906 525 
z
" transform="scale(0.015625)"/>
       <path id="DejaVuSans-75" d="M 544 1381 
L 544 3500 
L 1119 3500 
L 1119 1403 
Q 1119 906 1312 657 
Q 1506 409 1894 409 
Q 2359 409 2629 706 
Q 2900 1003 2900 1516 
L 2900 3500 
L 3475 3500 
L 3475 0 
L 2900 0 
L 2900 538 
Q 2691 219 2414 64 
Q 2138 -91 1772 -91 
Q 1169 -91 856 284 
Q 544 659 544 1381 
z
M 1991 3584 
L 1991 3584 
z
" transform="scale(0.015625)"/>
       <path id="DejaVuSans-72" d="M 2631 2963 
Q 2534 3019 2420 3045 
Q 2306 3072 2169 3072 
Q 1681 3072 1420 2755 
Q 1159 2438 1159 1844 
L 1159 0 
L 581 0 
L 581 3500 
L 1159 3500 
L 1159 2956 
Q 1341 3275 1631 3429 
Q 1922 3584 2338 3584 
Q 2397 3584 2469 3576 
Q 2541 3569 2628 3553 
L 2631 2963 
z
" transform="scale(0.015625)"/>
       <path id="DejaVuSans-64" d="M 2906 2969 
L 2906 4863 
L 3481 4863 
L 3481 0 
L 2906 0 
L 2906 525 
Q 2725 213 2448 61 
Q 2172 -91 1784 -91 
Q 1150 -91 751 415 
Q 353 922 353 1747 
Q 353 2572 751 3078 
Q 1150 3584 1784 3584 
Q 2172 3584 2448 3432 
Q 2725 3281 2906 2969 
z
M 947 1747 
Q 947 1113 1208 752 
Q 1469 391 1925 391 
Q 2381 391 2643 752 
Q 2906 1113 2906 1747 
Q 2906 2381 2643 2742 
Q 2381 3103 1925 3103 
Q 1469 3103 1208 2742 
Q 947 2381 947 1747 
z
" transform="scale(0.015625)"/>
       <path id="DejaVuSans-28" d="M 1984 4856 
Q 1566 4138 1362 3434 
Q 1159 2731 1159 2009 
Q 1159 1288 1364 580 
Q 1569 -128 1984 -844 
L 1484 -844 
Q 1016 -109 783 600 
Q 550 1309 550 2009 
Q 550 2706 781 3412 
Q 1013 4119 1484 4856 
L 1984 4856 
z
" transform="scale(0.015625)"/>
       <path id="DejaVuSans-29" d="M 513 4856 
L 1013 4856 
Q 1481 4119 1714 3412 
Q 1947 2706 1947 2009 
Q 1947 1309 1714 600 
Q 1481 -109 1013 -844 
L 513 -844 
Q 928 -128 1133 580 
Q 1338 1288 1338 2009 
Q 1338 2731 1133 3434 
Q 928 4138 513 4856 
z
" transform="scale(0.015625)"/>
      </defs>
      <use xlink:href="#DejaVuSans-4d"/>
      <use xlink:href="#DejaVuSans-65" transform="translate(86.279297 0)"/>
      <use xlink:href="#DejaVuSans-61" transform="translate(147.802734 0)"/>
      <use xlink:href="#DejaVuSans-6e" transform="translate(209.082031 0)"/>
      <use xlink:href="#DejaVuSans-20" transform="translate(272.460938 0)"/>
      <use xlink:href="#DejaVuSans-53" transform="translate(304.248047 0)"/>
      <use xlink:href="#DejaVuSans-71" transform="translate(367.724609 0)"/>
      <use xlink:href="#DejaVuSans-75" transform="translate(431.201172 0)"/>
      <use xlink:href="#DejaVuSans-61" transform="translate(494.580078 0)"/>
      <use xlink:href="#DejaVuSans-72" transform="translate(555.859375 0)"/>
      <use xlink:href="#DejaVuSans-65" transform="translate(594.722656 0)"/>
      <use xlink:href="#DejaVuSans-64" transform="translate(656.246094 0)"/>
      <use xlink:href="#DejaVuSans-20" transform="translate(719.722656 0)"/>
      <use xlink:href="#DejaVuSans-45" transform="translate(751.509766 0)"/>
      <use xlink:href="#DejaVuSans-72" transform="translate(814.693359 0)"/>
      <use xlink:href="#DejaVuSans-72" transform="translate(854.056641 0)"/>
      <use xlink:href="#DejaVuSans-6f" transform="translate(892.919922 0)"/>
      <use xlink:href="#DejaVuSans-72" transform="translate(954.101562 0)"/>
      <use xlink:href="#DejaVuSans-20" transform="translate(995.214844 0)"/>
      <use xlink:href="#DejaVuSans-28" transform="translate(1027.001953 0)"/>
      <use xlink:href="#DejaVuSans-4d" transform="translate(1066.015625 0)"/>
      <use xlink:href="#DejaVuSans-53" transform="translate(1152.294922 0)"/>
      <use xlink:href="#DejaVuSans-45" transform="translate(1215.771484 0)"/>
      <use xlink:href="#DejaVuSans-29" transform="translate(1278.955078 0)"/>
     </g>
    </g>
   </g>
   <g id="line2d_10">
    <path d="M 51.446797 131.684985 
L 80.705959 132.296683 
L 108.940277 132.3144 
L 204.757734 132.3144 
L 204.757734 132.3144 
" clip-path="url(#p2703395647)" style="fill: none; stroke-dasharray: 5.55,2.4; stroke-dashoffset: 0; stroke: #b8e3b2; stroke-width: 1.5"/>
   </g>
   <g id="line2d_11">
    <path d="M 51.446797 123.950496 
L 66.076378 130.364092 
L 69.907273 131.756136 
L 72.878746 132.593756 
L 77.359351 133.450567 
L 82.108984 133.987168 
L 95.335541 135.272784 
L 106.405447 136.699878 
L 121.934661 138.863563 
L 126.386556 139.760447 
L 130.265266 140.768211 
L 133.852313 141.929265 
L 137.301822 143.280063 
L 140.741895 144.869009 
L 144.346769 146.784681 
L 148.608892 149.315536 
L 157.81654 154.869497 
L 160.700002 156.28522 
L 163.247498 157.292392 
L 165.691397 158.020875 
L 168.20037 158.534861 
L 170.983512 158.872168 
L 174.487871 159.059511 
L 180.566507 159.122522 
L 204.757734 159.124732 
L 204.757734 159.124732 
" clip-path="url(#p2703395647)" style="fill: none; stroke-dasharray: 5.55,2.4; stroke-dashoffset: 0; stroke: #7dc87e; stroke-width: 1.5"/>
   </g>
   <g id="line2d_12">
    <path d="M 51.446797 51.431281 
L 60.677035 82.02405 
L 66.076378 99.436121 
L 69.907273 109.429506 
L 72.878746 115.244368 
L 75.306616 118.70287 
L 77.359351 120.829847 
L 79.137511 122.201802 
L 80.705959 123.143135 
L 83.378174 124.38478 
L 96.287118 129.623045 
L 105.968804 133.831874 
L 111.80479 136.058386 
L 118.170515 138.525199 
L 121.732382 140.161413 
L 124.972883 141.89593 
L 128.301724 143.93538 
L 132.007581 146.476587 
L 138.49212 151.262324 
L 142.409579 153.991774 
L 145.189862 155.664638 
L 147.606056 156.864714 
L 149.882185 157.750271 
L 152.161543 158.398368 
L 154.582498 158.852402 
L 157.384569 159.143868 
L 161.179216 159.296842 
L 169.82789 159.352254 
L 204.757734 159.514755 
L 204.757734 159.514755 
" clip-path="url(#p2703395647)" style="fill: none; stroke-dasharray: 5.55,2.4; stroke-dashoffset: 0; stroke: #3ba458; stroke-width: 1.5"/>
   </g>
   <g id="line2d_13">
    <path d="M 51.446797 104.363444 
L 66.076378 120.576343 
L 69.907273 124.195612 
L 72.878746 126.473171 
L 75.306616 127.989203 
L 79.137511 129.896062 
L 91.339222 135.270517 
L 105.285761 142.084993 
L 109.290729 143.628765 
L 115.199042 145.614961 
L 120.449597 147.477543 
L 124.53979 149.172911 
L 129.18446 151.352864 
L 138.626533 155.85576 
L 141.7462 157.041253 
L 144.53198 157.865214 
L 147.27091 158.443551 
L 150.206398 158.83185 
L 153.756086 159.06577 
L 159.484595 159.186648 
L 204.757734 159.622632 
L 204.757734 159.622632 
" clip-path="url(#p2703395647)" style="fill: none; stroke-dasharray: 5.55,2.4; stroke-dashoffset: 0; stroke: #0d7836; stroke-width: 1.5"/>
   </g>
   <g id="line2d_14">
    <path d="M 51.446797 28.85667 
L 66.076378 87.969193 
L 69.907273 100.613227 
L 72.878746 108.225722 
L 75.306616 112.999018 
L 77.359351 116.161548 
L 79.137511 118.402015 
L 82.108984 121.493353 
L 91.988933 130.9015 
L 99.886417 138.803082 
L 102.716975 141.275315 
L 105.285761 143.206509 
L 107.635528 144.683643 
L 109.965122 145.887735 
L 112.637337 147.010017 
L 116.366966 148.304208 
L 124.035108 150.928109 
L 129.902398 153.240308 
L 136.541918 155.811967 
L 140.039107 156.92071 
L 143.137127 157.671699 
L 146.211681 158.18661 
L 149.633737 158.526964 
L 154.255698 158.743218 
L 178.016686 159.35186 
L 190.784329 159.524125 
L 204.757734 159.62758 
L 204.757734 159.62758 
" clip-path="url(#p2703395647)" style="fill: none; stroke-dasharray: 5.55,2.4; stroke-dashoffset: 0; stroke: #00441b; stroke-width: 1.5"/>
   </g>
   <g id="patch_3">
    <path d="M 43.78125 166.166125 
L 43.78125 22.318125 
" style="fill: none; stroke: #000000; stroke-width: 0.8; stroke-linejoin: miter; stroke-linecap: square"/>
   </g>
   <g id="patch_4">
    <path d="M 212.423281 166.166125 
L 212.423281 22.318125 
" style="fill: none; stroke: #000000; stroke-width: 0.8; stroke-linejoin: miter; stroke-linecap: square"/>
   </g>
   <g id="patch_5">
    <path d="M 43.78125 166.166125 
L 212.423281 166.166125 
" style="fill: none; stroke: #000000; stroke-width: 0.8; stroke-linejoin: miter; stroke-linecap: square"/>
   </g>
   <g id="patch_6">
    <path d="M 43.78125 22.318125 
L 212.423281 22.318125 
" style="fill: none; stroke: #000000; stroke-width: 0.8; stroke-linejoin: miter; stroke-linecap: square"/>
   </g>
   <g id="text_12">
    <!-- Training Loss -->
    <g transform="translate(89.363828 16.318125) scale(0.12 -0.12)">
     <defs>
      <path id="DejaVuSans-54" d="M -19 4666 
L 3928 4666 
L 3928 4134 
L 2272 4134 
L 2272 0 
L 1638 0 
L 1638 4134 
L -19 4134 
L -19 4666 
z
" transform="scale(0.015625)"/>
      <path id="DejaVuSans-69" d="M 603 3500 
L 1178 3500 
L 1178 0 
L 603 0 
L 603 3500 
z
M 603 4863 
L 1178 4863 
L 1178 4134 
L 603 4134 
L 603 4863 
z
" transform="scale(0.015625)"/>
      <path id="DejaVuSans-67" d="M 2906 1791 
Q 2906 2416 2648 2759 
Q 2391 3103 1925 3103 
Q 1463 3103 1205 2759 
Q 947 2416 947 1791 
Q 947 1169 1205 825 
Q 1463 481 1925 481 
Q 2391 481 2648 825 
Q 2906 1169 2906 1791 
z
M 3481 434 
Q 3481 -459 3084 -895 
Q 2688 -1331 1869 -1331 
Q 1566 -1331 1297 -1286 
Q 1028 -1241 775 -1147 
L 775 -588 
Q 1028 -725 1275 -790 
Q 1522 -856 1778 -856 
Q 2344 -856 2625 -561 
Q 2906 -266 2906 331 
L 2906 616 
Q 2728 306 2450 153 
Q 2172 0 1784 0 
Q 1141 0 747 490 
Q 353 981 353 1791 
Q 353 2603 747 3093 
Q 1141 3584 1784 3584 
Q 2172 3584 2450 3431 
Q 2728 3278 2906 2969 
L 2906 3500 
L 3481 3500 
L 3481 434 
z
" transform="scale(0.015625)"/>
      <path id="DejaVuSans-4c" d="M 628 4666 
L 1259 4666 
L 1259 531 
L 3531 531 
L 3531 0 
L 628 0 
L 628 4666 
z
" transform="scale(0.015625)"/>
      <path id="DejaVuSans-73" d="M 2834 3397 
L 2834 2853 
Q 2591 2978 2328 3040 
Q 2066 3103 1784 3103 
Q 1356 3103 1142 2972 
Q 928 2841 928 2578 
Q 928 2378 1081 2264 
Q 1234 2150 1697 2047 
L 1894 2003 
Q 2506 1872 2764 1633 
Q 3022 1394 3022 966 
Q 3022 478 2636 193 
Q 2250 -91 1575 -91 
Q 1294 -91 989 -36 
Q 684 19 347 128 
L 347 722 
Q 666 556 975 473 
Q 1284 391 1588 391 
Q 1994 391 2212 530 
Q 2431 669 2431 922 
Q 2431 1156 2273 1281 
Q 2116 1406 1581 1522 
L 1381 1569 
Q 847 1681 609 1914 
Q 372 2147 372 2553 
Q 372 3047 722 3315 
Q 1072 3584 1716 3584 
Q 2034 3584 2315 3537 
Q 2597 3491 2834 3397 
z
" transform="scale(0.015625)"/>
     </defs>
     <use xlink:href="#DejaVuSans-54"/>
     <use xlink:href="#DejaVuSans-72" transform="translate(46.333984 0)"/>
     <use xlink:href="#DejaVuSans-61" transform="translate(87.447266 0)"/>
     <use xlink:href="#DejaVuSans-69" transform="translate(148.726562 0)"/>
     <use xlink:href="#DejaVuSans-6e" transform="translate(176.509766 0)"/>
     <use xlink:href="#DejaVuSans-69" transform="translate(239.888672 0)"/>
     <use xlink:href="#DejaVuSans-6e" transform="translate(267.671875 0)"/>
     <use xlink:href="#DejaVuSans-67" transform="translate(331.050781 0)"/>
     <use xlink:href="#DejaVuSans-20" transform="translate(394.527344 0)"/>
     <use xlink:href="#DejaVuSans-4c" transform="translate(426.314453 0)"/>
     <use xlink:href="#DejaVuSans-6f" transform="translate(480.277344 0)"/>
     <use xlink:href="#DejaVuSans-73" transform="translate(541.458984 0)"/>
     <use xlink:href="#DejaVuSans-73" transform="translate(593.558594 0)"/>
    </g>
   </g>
  </g>
  <g id="axes_2">
   <g id="patch_7">
    <path d="M 243.92125 166.166125 
L 412.563281 166.166125 
L 412.563281 22.318125 
L 243.92125 22.318125 
z
" style="fill: #ffffff"/>
   </g>
   <g id="matplotlib.axis_3">
    <g id="xtick_4">
     <g id="line2d_15">
      <g>
       <use xlink:href="#m995a6e5756" x="282.248984" y="166.166125" style="stroke: #000000; stroke-width: 0.8"/>
      </g>
     </g>
     <g id="text_13">
      <!-- $\mathdefault{10^{1}}$ -->
      <g transform="translate(273.448984 180.764563) scale(0.1 -0.1)">
       <use xlink:href="#DejaVuSans-31" transform="translate(0 0.684375)"/>
       <use xlink:href="#DejaVuSans-30" transform="translate(63.623047 0.684375)"/>
       <use xlink:href="#DejaVuSans-31" transform="translate(128.203125 38.965625) scale(0.7)"/>
      </g>
     </g>
    </g>
    <g id="xtick_5">
     <g id="line2d_16">
      <g>
       <use xlink:href="#m995a6e5756" x="343.573359" y="166.166125" style="stroke: #000000; stroke-width: 0.8"/>
      </g>
     </g>
     <g id="text_14">
      <!-- $\mathdefault{10^{3}}$ -->
      <g transform="translate(334.773359 180.764563) scale(0.1 -0.1)">
       <use xlink:href="#DejaVuSans-31" transform="translate(0 0.765625)"/>
       <use xlink:href="#DejaVuSans-30" transform="translate(63.623047 0.765625)"/>
       <use xlink:href="#DejaVuSans-33" transform="translate(128.203125 39.046875) scale(0.7)"/>
      </g>
     </g>
    </g>
    <g id="xtick_6">
     <g id="line2d_17">
      <g>
       <use xlink:href="#m995a6e5756" x="404.897734" y="166.166125" style="stroke: #000000; stroke-width: 0.8"/>
      </g>
     </g>
     <g id="text_15">
      <!-- $\mathdefault{10^{5}}$ -->
      <g transform="translate(396.097734 180.764563) scale(0.1 -0.1)">
       <use xlink:href="#DejaVuSans-31" transform="translate(0 0.684375)"/>
       <use xlink:href="#DejaVuSans-30" transform="translate(63.623047 0.684375)"/>
       <use xlink:href="#DejaVuSans-35" transform="translate(128.203125 38.965625) scale(0.7)"/>
      </g>
     </g>
    </g>
    <g id="text_16">
     <!-- Epoch -->
     <g transform="translate(312.931328 194.442688) scale(0.1 -0.1)">
      <use xlink:href="#DejaVuSans-45"/>
      <use xlink:href="#DejaVuSans-70" transform="translate(63.183594 0)"/>
      <use xlink:href="#DejaVuSans-6f" transform="translate(126.660156 0)"/>
      <use xlink:href="#DejaVuSans-63" transform="translate(187.841797 0)"/>
      <use xlink:href="#DejaVuSans-68" transform="translate(242.822266 0)"/>
     </g>
    </g>
   </g>
   <g id="matplotlib.axis_4">
    <g id="ytick_7">
     <g id="line2d_18">
      <g>
       <use xlink:href="#m9734232b9e" x="243.92125" y="154.37993" style="stroke: #000000; stroke-width: 0.8"/>
      </g>
     </g>
     <g id="text_17">
      <!-- 5 -->
      <g transform="translate(230.55875 158.179148) scale(0.1 -0.1)">
       <use xlink:href="#DejaVuSans-35"/>
      </g>
     </g>
    </g>
    <g id="ytick_8">
     <g id="line2d_19">
      <g>
       <use xlink:href="#m9734232b9e" x="243.92125" y="123.395567" style="stroke: #000000; stroke-width: 0.8"/>
      </g>
     </g>
     <g id="text_18">
      <!-- 10 -->
      <g transform="translate(224.19625 127.194786) scale(0.1 -0.1)">
       <use xlink:href="#DejaVuSans-31"/>
       <use xlink:href="#DejaVuSans-30" transform="translate(63.623047 0)"/>
      </g>
     </g>
    </g>
    <g id="ytick_9">
     <g id="line2d_20">
      <g>
       <use xlink:href="#m9734232b9e" x="243.92125" y="92.411204" style="stroke: #000000; stroke-width: 0.8"/>
      </g>
     </g>
     <g id="text_19">
      <!-- 15 -->
      <g transform="translate(224.19625 96.210423) scale(0.1 -0.1)">
       <use xlink:href="#DejaVuSans-31"/>
       <use xlink:href="#DejaVuSans-35" transform="translate(63.623047 0)"/>
      </g>
     </g>
    </g>
    <g id="ytick_10">
     <g id="line2d_21">
      <g>
       <use xlink:href="#m9734232b9e" x="243.92125" y="61.426841" style="stroke: #000000; stroke-width: 0.8"/>
      </g>
     </g>
     <g id="text_20">
      <!-- 20 -->
      <g transform="translate(224.19625 65.22606) scale(0.1 -0.1)">
       <use xlink:href="#DejaVuSans-32"/>
       <use xlink:href="#DejaVuSans-30" transform="translate(63.623047 0)"/>
      </g>
     </g>
    </g>
    <g id="ytick_11">
     <g id="line2d_22">
      <g>
       <use xlink:href="#m9734232b9e" x="243.92125" y="30.442479" style="stroke: #000000; stroke-width: 0.8"/>
      </g>
     </g>
     <g id="text_21">
      <!-- 25 -->
      <g transform="translate(224.19625 34.241697) scale(0.1 -0.1)">
       <use xlink:href="#DejaVuSans-32"/>
       <use xlink:href="#DejaVuSans-35" transform="translate(63.623047 0)"/>
      </g>
     </g>
    </g>
   </g>
   <g id="line2d_23">
    <path d="M 251.586797 31.696742 
L 260.817035 31.131561 
L 273.018746 30.024246 
L 282.248984 29.239916 
L 288.507749 28.957198 
L 296.427118 28.862198 
L 344.05717 28.85667 
L 404.897734 28.85667 
L 404.897734 28.85667 
" clip-path="url(#pa03e9adffc)" style="fill: none; stroke: #b8e3b2; stroke-width: 1.5; stroke-linecap: square"/>
   </g>
   <g id="line2d_24">
    <path d="M 251.586797 70.440715 
L 260.817035 67.364785 
L 266.216378 64.955087 
L 277.499351 59.458632 
L 280.845959 58.082365 
L 284.676854 56.773787 
L 289.315052 55.476573 
L 296.878566 53.399485 
L 301.978651 51.727708 
L 312.505564 48.161619 
L 315.339042 47.499297 
L 317.766912 47.152198 
L 320.055342 47.052605 
L 322.207826 47.182606 
L 324.345469 47.534908 
L 326.526556 48.121633 
L 328.809943 48.972017 
L 331.170388 50.092511 
L 333.60389 51.49681 
L 336.064565 53.176987 
L 338.496336 55.108185 
L 340.914454 57.314643 
L 343.33148 59.823832 
L 345.788699 62.699137 
L 348.345611 66.040524 
L 351.078597 69.987436 
L 354.193299 74.892652 
L 358.592247 82.28593 
L 363.752354 90.86711 
L 366.416587 94.862676 
L 368.609232 97.764668 
L 370.554722 99.981888 
L 372.351961 101.701551 
L 374.065345 103.039334 
L 375.748245 104.074886 
L 377.456089 104.865912 
L 379.25945 105.45467 
L 381.267889 105.8717 
L 383.694188 106.138749 
L 387.135579 106.273507 
L 395.516433 106.303403 
L 404.897734 106.303446 
L 404.897734 106.303446 
" clip-path="url(#pa03e9adffc)" style="fill: none; stroke: #7dc87e; stroke-width: 1.5; stroke-linecap: square"/>
   </g>
   <g id="line2d_25">
    <path d="M 251.586797 109.699386 
L 260.817035 102.504839 
L 266.216378 96.640449 
L 279.277511 80.711931 
L 282.248984 77.773751 
L 284.676854 75.704636 
L 287.648327 73.500782 
L 301.359171 63.940144 
L 305.657356 60.897935 
L 307.969932 59.512879 
L 309.939699 58.581774 
L 311.655291 58.01815 
L 313.174872 57.750436 
L 314.655999 57.727073 
L 315.988752 57.924259 
L 317.391777 58.367836 
L 318.747158 59.032985 
L 320.210186 60.013627 
L 321.735802 61.322013 
L 323.349933 63.011966 
L 325.112883 65.195982 
L 327.043308 67.962198 
L 329.128915 71.353172 
L 331.404897 75.487057 
L 333.937513 80.564847 
L 336.793167 86.808123 
L 340.434382 95.34345 
L 347.784936 112.697842 
L 350.306301 117.990991 
L 352.411711 121.91247 
L 354.277012 124.932891 
L 355.986446 127.291486 
L 357.5898 129.136139 
L 359.128778 130.575556 
L 360.634509 131.684469 
L 362.143245 132.522364 
L 363.702518 133.134239 
L 365.373043 133.548558 
L 367.249932 133.779864 
L 369.504923 133.824841 
L 372.487789 133.647872 
L 376.777228 133.155458 
L 381.891509 132.346715 
L 387.046831 131.305484 
L 393.139966 129.832969 
L 401.501592 127.819893 
L 404.897734 127.231927 
L 404.897734 127.231927 
" clip-path="url(#pa03e9adffc)" style="fill: none; stroke: #3ba458; stroke-width: 1.5; stroke-linecap: square"/>
   </g>
   <g id="line2d_26">
    <path d="M 251.586797 120.828658 
L 260.817035 116.653091 
L 266.216378 113.247029 
L 273.018746 108.202107 
L 279.277511 103.454798 
L 284.676854 99.693405 
L 292.748413 94.189214 
L 296.878566 91.032836 
L 305.190066 84.525946 
L 307.377994 83.165614 
L 309.080277 82.343523 
L 310.589409 81.835939 
L 312.087213 81.574717 
L 313.433451 81.571685 
L 314.7723 81.804886 
L 316.094021 82.278493 
L 317.391777 82.985195 
L 318.747158 83.979742 
L 320.210186 85.341321 
L 321.804267 87.149561 
L 323.531111 89.462062 
L 325.480618 92.468218 
L 327.673256 96.281297 
L 330.188734 101.119543 
L 333.261694 107.537562 
L 338.496336 119.096238 
L 342.41952 127.501861 
L 344.975052 132.469339 
L 347.097806 136.128901 
L 348.981577 138.947278 
L 350.701945 141.132163 
L 352.308455 142.822596 
L 353.840767 144.119448 
L 355.330968 145.094108 
L 356.809776 145.798416 
L 358.313451 146.269448 
L 359.889234 146.529229 
L 361.600743 146.582382 
L 363.528097 146.414093 
L 365.796308 145.985154 
L 368.55222 145.229136 
L 371.82471 144.095128 
L 375.439204 142.604209 
L 379.519873 140.671765 
L 390.246029 135.44375 
L 392.731928 134.583194 
L 394.914181 134.058633 
L 396.949512 133.795716 
L 398.931255 133.76341 
L 400.932108 133.954396 
L 403.018596 134.379711 
L 404.897734 134.942083 
L 404.897734 134.942083 
" clip-path="url(#pa03e9adffc)" style="fill: none; stroke: #0d7836; stroke-width: 1.5; stroke-linecap: square"/>
   </g>
   <g id="line2d_27">
    <path d="M 251.586797 158.982905 
L 260.817035 155.189276 
L 266.216378 151.686733 
L 270.047273 148.603644 
L 275.446616 143.690313 
L 282.248984 137.429426 
L 293.340351 127.594489 
L 296.427118 124.418466 
L 300.372318 119.996652 
L 305.425761 114.320226 
L 307.578245 112.213909 
L 309.430729 110.706956 
L 310.902751 109.776587 
L 312.228129 109.180163 
L 313.433451 108.859788 
L 314.655999 108.767634 
L 315.775685 108.898394 
L 316.90749 109.244025 
L 318.131768 109.859015 
L 319.417308 110.767592 
L 320.81216 112.04199 
L 322.339673 113.753355 
L 324.06031 116.028562 
L 326.088317 119.103067 
L 328.524435 123.227436 
L 331.732905 129.131853 
L 340.383717 145.285967 
L 342.791832 149.176597 
L 344.842549 152.081067 
L 346.67206 154.300213 
L 348.364209 156.013312 
L 349.956384 157.316225 
L 351.481703 158.28236 
L 352.969021 158.964291 
L 354.442878 159.397397 
L 355.939178 159.605288 
L 357.48715 159.594665 
L 359.132918 159.357689 
L 360.916252 158.871617 
L 362.884932 158.099234 
L 365.077023 156.994742 
L 367.492968 155.523403 
L 370.095705 153.673388 
L 372.884207 151.412827 
L 376.038651 148.558075 
L 381.343847 143.388374 
L 384.72044 140.268414 
L 386.984098 138.469747 
L 388.873115 137.243581 
L 390.562367 136.405515 
L 392.138541 135.867378 
L 393.660933 135.58032 
L 395.179815 135.520076 
L 396.744027 135.682451 
L 398.407066 136.082429 
L 400.232109 136.755679 
L 402.296101 137.761325 
L 404.685519 139.181197 
L 404.897734 139.318404 
L 404.897734 139.318404 
" clip-path="url(#pa03e9adffc)" style="fill: none; stroke: #00441b; stroke-width: 1.5; stroke-linecap: square"/>
   </g>
   <g id="patch_8">
    <path d="M 243.92125 166.166125 
L 243.92125 22.318125 
" style="fill: none; stroke: #000000; stroke-width: 0.8; stroke-linejoin: miter; stroke-linecap: square"/>
   </g>
   <g id="patch_9">
    <path d="M 412.563281 166.166125 
L 412.563281 22.318125 
" style="fill: none; stroke: #000000; stroke-width: 0.8; stroke-linejoin: miter; stroke-linecap: square"/>
   </g>
   <g id="patch_10">
    <path d="M 243.92125 166.166125 
L 412.563281 166.166125 
" style="fill: none; stroke: #000000; stroke-width: 0.8; stroke-linejoin: miter; stroke-linecap: square"/>
   </g>
   <g id="patch_11">
    <path d="M 243.92125 22.318125 
L 412.563281 22.318125 
" style="fill: none; stroke: #000000; stroke-width: 0.8; stroke-linejoin: miter; stroke-linecap: square"/>
   </g>
   <g id="text_22">
    <!-- Validation Loss -->
    <g transform="translate(283.546015 16.318125) scale(0.12 -0.12)">
     <defs>
      <path id="DejaVuSans-56" d="M 1831 0 
L 50 4666 
L 709 4666 
L 2188 738 
L 3669 4666 
L 4325 4666 
L 2547 0 
L 1831 0 
z
" transform="scale(0.015625)"/>
      <path id="DejaVuSans-6c" d="M 603 4863 
L 1178 4863 
L 1178 0 
L 603 0 
L 603 4863 
z
" transform="scale(0.015625)"/>
      <path id="DejaVuSans-74" d="M 1172 4494 
L 1172 3500 
L 2356 3500 
L 2356 3053 
L 1172 3053 
L 1172 1153 
Q 1172 725 1289 603 
Q 1406 481 1766 481 
L 2356 481 
L 2356 0 
L 1766 0 
Q 1100 0 847 248 
Q 594 497 594 1153 
L 594 3053 
L 172 3053 
L 172 3500 
L 594 3500 
L 594 4494 
L 1172 4494 
z
" transform="scale(0.015625)"/>
     </defs>
     <use xlink:href="#DejaVuSans-56"/>
     <use xlink:href="#DejaVuSans-61" transform="translate(60.658203 0)"/>
     <use xlink:href="#DejaVuSans-6c" transform="translate(121.9375 0)"/>
     <use xlink:href="#DejaVuSans-69" transform="translate(149.720703 0)"/>
     <use xlink:href="#DejaVuSans-64" transform="translate(177.503906 0)"/>
     <use xlink:href="#DejaVuSans-61" transform="translate(240.980469 0)"/>
     <use xlink:href="#DejaVuSans-74" transform="translate(302.259766 0)"/>
     <use xlink:href="#DejaVuSans-69" transform="translate(341.46875 0)"/>
     <use xlink:href="#DejaVuSans-6f" transform="translate(369.251953 0)"/>
     <use xlink:href="#DejaVuSans-6e" transform="translate(430.433594 0)"/>
     <use xlink:href="#DejaVuSans-20" transform="translate(493.8125 0)"/>
     <use xlink:href="#DejaVuSans-4c" transform="translate(525.599609 0)"/>
     <use xlink:href="#DejaVuSans-6f" transform="translate(579.5625 0)"/>
     <use xlink:href="#DejaVuSans-73" transform="translate(640.744141 0)"/>
     <use xlink:href="#DejaVuSans-73" transform="translate(692.84375 0)"/>
    </g>
   </g>
  </g>
  <g id="legend_1">
   <g id="patch_12">
    <path d="M 431.37125 141.633438 
L 509.305625 141.633438 
Q 511.305625 141.633438 511.305625 139.633438 
L 511.305625 67.242813 
Q 511.305625 65.242813 509.305625 65.242813 
L 431.37125 65.242813 
Q 429.37125 65.242813 429.37125 67.242813 
L 429.37125 139.633438 
Q 429.37125 141.633438 431.37125 141.633438 
z
" style="fill: #ffffff; opacity: 0.8; stroke: #cccccc; stroke-linejoin: miter"/>
   </g>
   <g id="line2d_28">
    <path d="M 433.37125 73.34125 
L 443.37125 73.34125 
L 453.37125 73.34125 
" style="fill: none; stroke: #b8e3b2; stroke-width: 1.5; stroke-linecap: square"/>
   </g>
   <g id="text_23">
    <!-- Degree 1 -->
    <g transform="translate(461.37125 76.84125) scale(0.1 -0.1)">
     <defs>
      <path id="DejaVuSans-44" d="M 1259 4147 
L 1259 519 
L 2022 519 
Q 2988 519 3436 956 
Q 3884 1394 3884 2338 
Q 3884 3275 3436 3711 
Q 2988 4147 2022 4147 
L 1259 4147 
z
M 628 4666 
L 1925 4666 
Q 3281 4666 3915 4102 
Q 4550 3538 4550 2338 
Q 4550 1131 3912 565 
Q 3275 0 1925 0 
L 628 0 
L 628 4666 
z
" transform="scale(0.015625)"/>
     </defs>
     <use xlink:href="#DejaVuSans-44"/>
     <use xlink:href="#DejaVuSans-65" transform="translate(77.001953 0)"/>
     <use xlink:href="#DejaVuSans-67" transform="translate(138.525391 0)"/>
     <use xlink:href="#DejaVuSans-72" transform="translate(202.001953 0)"/>
     <use xlink:href="#DejaVuSans-65" transform="translate(240.865234 0)"/>
     <use xlink:href="#DejaVuSans-65" transform="translate(302.388672 0)"/>
     <use xlink:href="#DejaVuSans-20" transform="translate(363.912109 0)"/>
     <use xlink:href="#DejaVuSans-31" transform="translate(395.699219 0)"/>
    </g>
   </g>
   <g id="line2d_29">
    <path d="M 433.37125 88.019375 
L 443.37125 88.019375 
L 453.37125 88.019375 
" style="fill: none; stroke: #7dc87e; stroke-width: 1.5; stroke-linecap: square"/>
   </g>
   <g id="text_24">
    <!-- Degree 3 -->
    <g transform="translate(461.37125 91.519375) scale(0.1 -0.1)">
     <use xlink:href="#DejaVuSans-44"/>
     <use xlink:href="#DejaVuSans-65" transform="translate(77.001953 0)"/>
     <use xlink:href="#DejaVuSans-67" transform="translate(138.525391 0)"/>
     <use xlink:href="#DejaVuSans-72" transform="translate(202.001953 0)"/>
     <use xlink:href="#DejaVuSans-65" transform="translate(240.865234 0)"/>
     <use xlink:href="#DejaVuSans-65" transform="translate(302.388672 0)"/>
     <use xlink:href="#DejaVuSans-20" transform="translate(363.912109 0)"/>
     <use xlink:href="#DejaVuSans-33" transform="translate(395.699219 0)"/>
    </g>
   </g>
   <g id="line2d_30">
    <path d="M 433.37125 102.6975 
L 443.37125 102.6975 
L 453.37125 102.6975 
" style="fill: none; stroke: #3ba458; stroke-width: 1.5; stroke-linecap: square"/>
   </g>
   <g id="text_25">
    <!-- Degree 5 -->
    <g transform="translate(461.37125 106.1975) scale(0.1 -0.1)">
     <use xlink:href="#DejaVuSans-44"/>
     <use xlink:href="#DejaVuSans-65" transform="translate(77.001953 0)"/>
     <use xlink:href="#DejaVuSans-67" transform="translate(138.525391 0)"/>
     <use xlink:href="#DejaVuSans-72" transform="translate(202.001953 0)"/>
     <use xlink:href="#DejaVuSans-65" transform="translate(240.865234 0)"/>
     <use xlink:href="#DejaVuSans-65" transform="translate(302.388672 0)"/>
     <use xlink:href="#DejaVuSans-20" transform="translate(363.912109 0)"/>
     <use xlink:href="#DejaVuSans-35" transform="translate(395.699219 0)"/>
    </g>
   </g>
   <g id="line2d_31">
    <path d="M 433.37125 117.375625 
L 443.37125 117.375625 
L 453.37125 117.375625 
" style="fill: none; stroke: #0d7836; stroke-width: 1.5; stroke-linecap: square"/>
   </g>
   <g id="text_26">
    <!-- Degree 7 -->
    <g transform="translate(461.37125 120.875625) scale(0.1 -0.1)">
     <defs>
      <path id="DejaVuSans-37" d="M 525 4666 
L 3525 4666 
L 3525 4397 
L 1831 0 
L 1172 0 
L 2766 4134 
L 525 4134 
L 525 4666 
z
" transform="scale(0.015625)"/>
     </defs>
     <use xlink:href="#DejaVuSans-44"/>
     <use xlink:href="#DejaVuSans-65" transform="translate(77.001953 0)"/>
     <use xlink:href="#DejaVuSans-67" transform="translate(138.525391 0)"/>
     <use xlink:href="#DejaVuSans-72" transform="translate(202.001953 0)"/>
     <use xlink:href="#DejaVuSans-65" transform="translate(240.865234 0)"/>
     <use xlink:href="#DejaVuSans-65" transform="translate(302.388672 0)"/>
     <use xlink:href="#DejaVuSans-20" transform="translate(363.912109 0)"/>
     <use xlink:href="#DejaVuSans-37" transform="translate(395.699219 0)"/>
    </g>
   </g>
   <g id="line2d_32">
    <path d="M 433.37125 132.05375 
L 443.37125 132.05375 
L 453.37125 132.05375 
" style="fill: none; stroke: #00441b; stroke-width: 1.5; stroke-linecap: square"/>
   </g>
   <g id="text_27">
    <!-- Degree 9 -->
    <g transform="translate(461.37125 135.55375) scale(0.1 -0.1)">
     <use xlink:href="#DejaVuSans-44"/>
     <use xlink:href="#DejaVuSans-65" transform="translate(77.001953 0)"/>
     <use xlink:href="#DejaVuSans-67" transform="translate(138.525391 0)"/>
     <use xlink:href="#DejaVuSans-72" transform="translate(202.001953 0)"/>
     <use xlink:href="#DejaVuSans-65" transform="translate(240.865234 0)"/>
     <use xlink:href="#DejaVuSans-65" transform="translate(302.388672 0)"/>
     <use xlink:href="#DejaVuSans-20" transform="translate(363.912109 0)"/>
     <use xlink:href="#DejaVuSans-39" transform="translate(395.699219 0)"/>
    </g>
   </g>
  </g>
 </g>
 <defs>
  <clipPath id="p2703395647">
   <rect x="43.78125" y="22.318125" width="168.642031" height="143.848"/>
  </clipPath>
  <clipPath id="pa03e9adffc">
   <rect x="243.92125" y="22.318125" width="168.642031" height="143.848"/>
  </clipPath>
 </defs>
</svg>
